M48
; DRILL file {KiCad 9.0.3} date 2025-07-24T09:06:06+0200
; FORMAT={-:-/ absolute / metric / decimal}
; #@! TF.CreationDate,2025-07-24T09:06:06+02:00
; #@! TF.GenerationSoftware,Kicad,Pcbnew,9.0.3
; #@! TF.FileFunction,Plated,1,2,PTH
FMAT,2
METRIC
; #@! TA.AperFunction,Plated,PTH,ViaDrill
T1C0.300
; #@! TA.AperFunction,Plated,PTH,ComponentDrill
T2C0.750
; #@! TA.AperFunction,Plated,PTH,ComponentDrill
T3C0.800
; #@! TA.AperFunction,Plated,PTH,ComponentDrill
T4C1.200
; #@! TA.AperFunction,Plated,PTH,ComponentDrill
T5C1.400
%
G90
G05
T1
X105.5Y-110.5
X112.5Y-129.5
X112.5Y-130.5
X112.5Y-131.5
X112.5Y-132.5
X112.5Y-133.5
X112.5Y-134.5
X112.5Y-135.5
X112.5Y-136.5
X112.5Y-137.5
X112.5Y-138.5
X112.5Y-139.5
X112.5Y-140.5
X113.5Y-129.5
X113.5Y-130.5
X113.5Y-131.5
X113.5Y-132.5
X113.5Y-133.5
X113.5Y-134.5
X113.5Y-135.5
X113.5Y-136.5
X113.5Y-137.5
X113.5Y-138.5
X113.5Y-139.5
X113.5Y-140.5
X114.5Y-129.5
X114.5Y-130.5
X114.5Y-131.5
X114.5Y-132.5
X114.5Y-133.5
X114.5Y-134.5
X114.5Y-135.5
X114.5Y-136.5
X114.5Y-137.5
X114.5Y-138.5
X114.5Y-139.5
X114.5Y-140.5
X115.5Y-129.5
X115.5Y-130.5
X115.5Y-131.5
X115.5Y-132.5
X115.5Y-133.5
X115.5Y-134.5
X115.5Y-135.5
X115.5Y-136.5
X115.5Y-137.5
X115.5Y-138.5
X115.5Y-139.5
X115.5Y-140.5
X116.0Y-109.0
X116.5Y-129.5
X116.5Y-130.5
X116.5Y-131.5
X116.5Y-132.5
X116.5Y-133.5
X116.5Y-134.5
X116.5Y-135.5
X116.5Y-136.5
X116.5Y-137.5
X116.5Y-138.5
X116.5Y-139.5
X116.5Y-140.5
X117.5Y-136.5
X117.5Y-137.5
X117.5Y-138.5
X117.5Y-139.5
X117.5Y-140.5
X118.5Y-118.5
X118.5Y-136.5
X118.5Y-137.5
X118.5Y-138.5
X118.5Y-139.5
X118.5Y-140.5
X119.5Y-136.5
X119.5Y-137.5
X119.5Y-138.5
X119.5Y-139.5
X119.5Y-140.5
X120.0Y-104.5
X120.5Y-123.0
X120.5Y-128.5
X120.5Y-136.5
X120.5Y-137.5
X120.5Y-138.5
X120.5Y-139.5
X120.5Y-140.5
X121.0Y-107.5
X121.5Y-136.5
X121.5Y-137.5
X121.5Y-138.5
X121.5Y-139.5
X121.5Y-140.5
X122.5Y-136.5
X122.5Y-137.5
X122.5Y-138.5
X122.5Y-139.5
X122.5Y-140.5
X123.5Y-136.5
X123.5Y-137.5
X123.5Y-138.5
X123.5Y-139.5
X123.5Y-140.5
X124.5Y-129.5
X124.5Y-130.5
X124.5Y-131.5
X124.5Y-132.5
X124.5Y-133.5
X124.5Y-134.5
X124.5Y-135.5
X124.5Y-136.5
X124.5Y-137.5
X124.5Y-138.5
X124.5Y-139.5
X124.5Y-140.5
X125.5Y-118.5
X125.5Y-129.5
X125.5Y-130.5
X125.5Y-131.5
X125.5Y-132.5
X125.5Y-133.5
X125.5Y-134.5
X125.5Y-135.5
X125.5Y-136.5
X125.5Y-137.5
X125.5Y-138.5
X125.5Y-139.5
X125.5Y-140.5
X126.5Y-129.5
X126.5Y-130.5
X126.5Y-131.5
X126.5Y-132.5
X126.5Y-133.5
X126.5Y-134.5
X126.5Y-135.5
X126.5Y-136.5
X126.5Y-137.5
X126.5Y-138.5
X126.5Y-139.5
X126.5Y-140.5
X127.5Y-129.5
X127.5Y-130.5
X127.5Y-131.5
X127.5Y-132.5
X127.5Y-133.5
X127.5Y-134.5
X127.5Y-135.5
X127.5Y-136.5
X127.5Y-137.5
X127.5Y-138.5
X127.5Y-139.5
X127.5Y-140.5
X128.5Y-129.5
X128.5Y-130.5
X128.5Y-131.5
X128.5Y-132.5
X128.5Y-133.5
X128.5Y-134.5
X128.5Y-135.5
X128.5Y-136.5
X128.5Y-137.5
X128.5Y-138.5
X128.5Y-139.5
X128.5Y-140.5
X134.2Y-110.1
X137.5Y-116.0
T2
X131.5Y-116.73
X131.5Y-118.0
X131.5Y-119.27
X131.64Y-110.73
X131.64Y-113.27
X132.91Y-112.0
T3
X113.38Y-109.38
X113.38Y-111.92
X113.38Y-114.46
X113.38Y-117.0
X121.0Y-109.38
X121.0Y-111.92
X121.0Y-114.46
X121.0Y-117.0
X125.5Y-114.0
X125.5Y-116.0
T4
X106.5Y-105.5
X106.5Y-125.82
T5
X130.5Y-105.0
X130.55Y-125.0
X130.55Y-145.0
X135.9Y-105.0
X135.95Y-125.0
X135.95Y-145.0
M30
