%TF.GenerationSoftware,KiCad,Pcbnew,9.0.3*%
%TF.CreationDate,2025-07-24T09:06:34+02:00*%
%TF.ProjectId,turn-signal-flasher-6V,7475726e-2d73-4696-976e-616c2d666c61,rev?*%
%TF.SameCoordinates,Original*%
%TF.FileFunction,Soldermask,Bot*%
%TF.FilePolarity,Negative*%
%FSLAX46Y46*%
G04 Gerber Fmt 4.6, Leading zero omitted, Abs format (unit mm)*
G04 Created by KiCad (PCBNEW 9.0.3) date 2025-07-24 09:06:34*
%MOMM*%
%LPD*%
G01*
G04 APERTURE LIST*
G04 Aperture macros list*
%AMRoundRect*
0 Rectangle with rounded corners*
0 $1 Rounding radius*
0 $2 $3 $4 $5 $6 $7 $8 $9 X,Y pos of 4 corners*
0 Add a 4 corners polygon primitive as box body*
4,1,4,$2,$3,$4,$5,$6,$7,$8,$9,$2,$3,0*
0 Add four circle primitives for the rounded corners*
1,1,$1+$1,$2,$3*
1,1,$1+$1,$4,$5*
1,1,$1+$1,$6,$7*
1,1,$1+$1,$8,$9*
0 Add four rect primitives between the rounded corners*
20,1,$1+$1,$2,$3,$4,$5,0*
20,1,$1+$1,$4,$5,$6,$7,0*
20,1,$1+$1,$6,$7,$8,$9,0*
20,1,$1+$1,$8,$9,$2,$3,0*%
G04 Aperture macros list end*
%ADD10R,1.300000X1.300000*%
%ADD11C,1.300000*%
%ADD12RoundRect,0.950000X-0.950000X-0.950000X0.950000X-0.950000X0.950000X0.950000X-0.950000X0.950000X0*%
%ADD13RoundRect,0.250000X-0.550000X0.550000X-0.550000X-0.550000X0.550000X-0.550000X0.550000X0.550000X0*%
%ADD14C,1.600000*%
%ADD15RoundRect,0.250000X-0.550000X-0.550000X0.550000X-0.550000X0.550000X0.550000X-0.550000X0.550000X0*%
%ADD16C,2.400000*%
%ADD17R,1.500000X1.050000*%
%ADD18O,1.500000X1.050000*%
%ADD19RoundRect,0.250000X0.625000X-0.400000X0.625000X0.400000X-0.625000X0.400000X-0.625000X-0.400000X0*%
%ADD20RoundRect,0.250000X-0.400000X-0.625000X0.400000X-0.625000X0.400000X0.625000X-0.400000X0.625000X0*%
%ADD21RoundRect,0.250000X-0.650000X0.412500X-0.650000X-0.412500X0.650000X-0.412500X0.650000X0.412500X0*%
%ADD22RoundRect,0.250000X-0.412500X-0.650000X0.412500X-0.650000X0.412500X0.650000X-0.412500X0.650000X0*%
%ADD23RoundRect,0.250000X-0.625000X0.400000X-0.625000X-0.400000X0.625000X-0.400000X0.625000X0.400000X0*%
G04 APERTURE END LIST*
D10*
%TO.C,U2*%
X131640000Y-110730000D03*
D11*
X132910000Y-112000000D03*
X131640000Y-113270000D03*
%TD*%
D12*
%TO.C,J3*%
X130550000Y-145000000D03*
X135950000Y-145000000D03*
%TD*%
%TO.C,J1*%
X130500000Y-105000000D03*
X135900000Y-105000000D03*
%TD*%
D13*
%TO.C,C2*%
X125500000Y-114000000D03*
D14*
X125500000Y-116000000D03*
%TD*%
D15*
%TO.C,U1*%
X113380000Y-109380000D03*
D14*
X113380000Y-111920000D03*
X113380000Y-114460000D03*
X113380000Y-117000000D03*
X121000000Y-117000000D03*
X121000000Y-114460000D03*
X121000000Y-111920000D03*
X121000000Y-109380000D03*
%TD*%
D12*
%TO.C,J2*%
X130550000Y-125000000D03*
X135950000Y-125000000D03*
%TD*%
D16*
%TO.C,R11*%
X106500000Y-125820000D03*
X106500000Y-105500000D03*
%TD*%
D17*
%TO.C,Q1*%
X131500000Y-116730000D03*
D18*
X131500000Y-118000000D03*
X131500000Y-119270000D03*
%TD*%
D19*
%TO.C,R6*%
X122500000Y-123000000D03*
X122500000Y-119900000D03*
%TD*%
D20*
%TO.C,R4*%
X107400000Y-110500000D03*
X110500000Y-110500000D03*
%TD*%
%TO.C,R9*%
X107400000Y-118500000D03*
X110500000Y-118500000D03*
%TD*%
D19*
%TO.C,R2*%
X135500000Y-115050000D03*
X135500000Y-111950000D03*
%TD*%
D21*
%TO.C,C1*%
X117500000Y-111875000D03*
X117500000Y-115000000D03*
%TD*%
D22*
%TO.C,C3*%
X124500000Y-109000000D03*
X127625000Y-109000000D03*
%TD*%
D23*
%TO.C,R5*%
X118500000Y-119900000D03*
X118500000Y-123000000D03*
%TD*%
%TO.C,R10*%
X114500000Y-119900000D03*
X114500000Y-123000000D03*
%TD*%
D20*
%TO.C,R3*%
X107400000Y-114500000D03*
X110500000Y-114500000D03*
%TD*%
D19*
%TO.C,R1*%
X135500000Y-120050000D03*
X135500000Y-116950000D03*
%TD*%
M02*
