%TF.GenerationSoftware,KiCad,Pcbnew,9.0.3*%
%TF.CreationDate,2025-07-24T09:06:34+02:00*%
%TF.ProjectId,turn-signal-flasher-6V,7475726e-2d73-4696-976e-616c2d666c61,rev?*%
%TF.SameCoordinates,Original*%
%TF.FileFunction,Copper,L1,Top*%
%TF.FilePolarity,Positive*%
%FSLAX46Y46*%
G04 Gerber Fmt 4.6, Leading zero omitted, Abs format (unit mm)*
G04 Created by KiCad (PCBNEW 9.0.3) date 2025-07-24 09:06:34*
%MOMM*%
%LPD*%
G01*
G04 APERTURE LIST*
G04 Aperture macros list*
%AMRoundRect*
0 Rectangle with rounded corners*
0 $1 Rounding radius*
0 $2 $3 $4 $5 $6 $7 $8 $9 X,Y pos of 4 corners*
0 Add a 4 corners polygon primitive as box body*
4,1,4,$2,$3,$4,$5,$6,$7,$8,$9,$2,$3,0*
0 Add four circle primitives for the rounded corners*
1,1,$1+$1,$2,$3*
1,1,$1+$1,$4,$5*
1,1,$1+$1,$6,$7*
1,1,$1+$1,$8,$9*
0 Add four rect primitives between the rounded corners*
20,1,$1+$1,$2,$3,$4,$5,0*
20,1,$1+$1,$4,$5,$6,$7,0*
20,1,$1+$1,$6,$7,$8,$9,0*
20,1,$1+$1,$8,$9,$2,$3,0*%
G04 Aperture macros list end*
%TA.AperFunction,ComponentPad*%
%ADD10R,1.300000X1.300000*%
%TD*%
%TA.AperFunction,ComponentPad*%
%ADD11C,1.300000*%
%TD*%
%TA.AperFunction,ComponentPad*%
%ADD12RoundRect,0.950000X-0.950000X-0.950000X0.950000X-0.950000X0.950000X0.950000X-0.950000X0.950000X0*%
%TD*%
%TA.AperFunction,SMDPad,CuDef*%
%ADD13RoundRect,0.250000X-0.350000X0.850000X-0.350000X-0.850000X0.350000X-0.850000X0.350000X0.850000X0*%
%TD*%
%TA.AperFunction,SMDPad,CuDef*%
%ADD14RoundRect,0.249997X-2.650003X2.950003X-2.650003X-2.950003X2.650003X-2.950003X2.650003X2.950003X0*%
%TD*%
%TA.AperFunction,ComponentPad*%
%ADD15RoundRect,0.250000X-0.550000X0.550000X-0.550000X-0.550000X0.550000X-0.550000X0.550000X0.550000X0*%
%TD*%
%TA.AperFunction,ComponentPad*%
%ADD16C,1.600000*%
%TD*%
%TA.AperFunction,ComponentPad*%
%ADD17RoundRect,0.250000X-0.550000X-0.550000X0.550000X-0.550000X0.550000X0.550000X-0.550000X0.550000X0*%
%TD*%
%TA.AperFunction,SMDPad,CuDef*%
%ADD18RoundRect,0.250000X-0.625000X0.400000X-0.625000X-0.400000X0.625000X-0.400000X0.625000X0.400000X0*%
%TD*%
%TA.AperFunction,ComponentPad*%
%ADD19C,2.400000*%
%TD*%
%TA.AperFunction,SMDPad,CuDef*%
%ADD20RoundRect,0.250000X-0.400000X-0.625000X0.400000X-0.625000X0.400000X0.625000X-0.400000X0.625000X0*%
%TD*%
%TA.AperFunction,ComponentPad*%
%ADD21R,1.500000X1.050000*%
%TD*%
%TA.AperFunction,ComponentPad*%
%ADD22O,1.500000X1.050000*%
%TD*%
%TA.AperFunction,ViaPad*%
%ADD23C,0.900000*%
%TD*%
%TA.AperFunction,Conductor*%
%ADD24C,0.300000*%
%TD*%
%TA.AperFunction,Conductor*%
%ADD25C,5.000000*%
%TD*%
G04 APERTURE END LIST*
D10*
%TO.P,U2,1,ADJ*%
%TO.N,Net-(U2-ADJ)*%
X131640000Y-110730000D03*
D11*
%TO.P,U2,2,VI*%
%TO.N,GND*%
X132910000Y-112000000D03*
%TO.P,U2,3,VO*%
%TO.N,VEE*%
X131640000Y-113270000D03*
%TD*%
D12*
%TO.P,J3,1,Pin_1*%
%TO.N,Net-(J3-Pin_1)*%
X130550000Y-145000000D03*
X135950000Y-145000000D03*
%TD*%
D13*
%TO.P,Q2,1,G*%
%TO.N,Net-(Q2-G)*%
X122805000Y-125875000D03*
D14*
%TO.P,Q2,2,D*%
%TO.N,Net-(J3-Pin_1)*%
X120525000Y-132175000D03*
D13*
%TO.P,Q2,3,S*%
%TO.N,Net-(Q2-S)*%
X118245000Y-125875000D03*
%TD*%
D12*
%TO.P,J1,1,Pin_1*%
%TO.N,VCC*%
X130500000Y-105000000D03*
X135900000Y-105000000D03*
%TD*%
D15*
%TO.P,C2,1*%
%TO.N,VCC*%
X125500000Y-114000000D03*
D16*
%TO.P,C2,2*%
%TO.N,VEE*%
X125500000Y-116000000D03*
%TD*%
D17*
%TO.P,U1,1,~{RESET}/PB5*%
%TO.N,unconnected-(U1-~{RESET}{slash}PB5-Pad1)*%
X113380000Y-109380000D03*
D16*
%TO.P,U1,2,XTAL1/PB3*%
%TO.N,Net-(U1-XTAL1{slash}PB3)*%
X113380000Y-111920000D03*
%TO.P,U1,3,XTAL2/PB4*%
%TO.N,Net-(U1-XTAL2{slash}PB4)*%
X113380000Y-114460000D03*
%TO.P,U1,4,GND*%
%TO.N,VEE*%
X113380000Y-117000000D03*
%TO.P,U1,5,AREF/PB0*%
%TO.N,unconnected-(U1-AREF{slash}PB0-Pad5)*%
X121000000Y-117000000D03*
%TO.P,U1,6,PB1*%
%TO.N,Net-(U1-PB1)*%
X121000000Y-114460000D03*
%TO.P,U1,7,PB2*%
%TO.N,unconnected-(U1-PB2-Pad7)*%
X121000000Y-111920000D03*
%TO.P,U1,8,VCC*%
%TO.N,VCC*%
X121000000Y-109380000D03*
%TD*%
D12*
%TO.P,J2,1,Pin_1*%
%TO.N,GND*%
X130550000Y-125000000D03*
X135950000Y-125000000D03*
%TD*%
D18*
%TO.P,R7,1*%
%TO.N,Net-(Q1-E)*%
X122500000Y-119950000D03*
%TO.P,R7,2*%
%TO.N,Net-(Q2-G)*%
X122500000Y-123050000D03*
%TD*%
D19*
%TO.P,R11,1*%
%TO.N,Net-(Q2-S)*%
X106500000Y-125820000D03*
%TO.P,R11,2*%
%TO.N,VCC*%
X106500000Y-105500000D03*
%TD*%
D20*
%TO.P,R8,1*%
%TO.N,Net-(U1-XTAL2{slash}PB4)*%
X115400000Y-104500000D03*
%TO.P,R8,2*%
%TO.N,VCC*%
X118500000Y-104500000D03*
%TD*%
D21*
%TO.P,Q1,1,C*%
%TO.N,GND*%
X131500000Y-116730000D03*
D22*
%TO.P,Q1,2,B*%
%TO.N,Net-(Q1-B)*%
X131500000Y-118000000D03*
%TO.P,Q1,3,E*%
%TO.N,Net-(Q1-E)*%
X131500000Y-119270000D03*
%TD*%
D23*
%TO.N,VCC*%
X121000000Y-107500000D03*
X120000000Y-104500000D03*
%TO.N,GND*%
X105500000Y-110500000D03*
%TO.N,Net-(J3-Pin_1)*%
X114500000Y-140500000D03*
X128500000Y-129500000D03*
X124500000Y-137500000D03*
X114500000Y-137500000D03*
X127500000Y-129500000D03*
X125500000Y-136500000D03*
X124500000Y-132500000D03*
X128500000Y-134500000D03*
X116500000Y-136500000D03*
X126500000Y-132500000D03*
X121500000Y-136500000D03*
X127500000Y-134500000D03*
X112500000Y-135500000D03*
X122500000Y-136500000D03*
X115500000Y-133500000D03*
X127500000Y-135500000D03*
X117500000Y-136500000D03*
X125500000Y-131500000D03*
X128500000Y-132500000D03*
X128500000Y-138500000D03*
X124500000Y-130500000D03*
X127500000Y-138500000D03*
X114500000Y-134500000D03*
X128500000Y-131500000D03*
X124500000Y-140500000D03*
X114500000Y-133500000D03*
X125500000Y-134500000D03*
X112500000Y-129500000D03*
X126500000Y-139500000D03*
X112500000Y-140500000D03*
X114500000Y-139500000D03*
X119500000Y-137500000D03*
X118500000Y-140500000D03*
X113500000Y-140500000D03*
X126500000Y-140500000D03*
X116500000Y-133500000D03*
X119500000Y-138500000D03*
X128500000Y-133500000D03*
X124500000Y-133500000D03*
X113500000Y-131500000D03*
X125500000Y-137500000D03*
X116500000Y-135500000D03*
X113500000Y-134500000D03*
X119500000Y-140500000D03*
X127500000Y-130500000D03*
X115500000Y-129500000D03*
X122500000Y-138500000D03*
X112500000Y-136500000D03*
X113500000Y-132500000D03*
X113500000Y-133500000D03*
X114500000Y-131500000D03*
X115500000Y-140500000D03*
X128500000Y-130500000D03*
X126500000Y-138500000D03*
X123500000Y-136500000D03*
X114500000Y-132500000D03*
X116500000Y-140500000D03*
X126500000Y-133500000D03*
X125500000Y-140500000D03*
X119500000Y-136500000D03*
X120500000Y-140500000D03*
X126500000Y-134500000D03*
X115500000Y-139500000D03*
X128500000Y-135500000D03*
X112500000Y-134500000D03*
X126500000Y-130500000D03*
X113500000Y-137500000D03*
X128500000Y-139500000D03*
X120500000Y-138500000D03*
X122500000Y-137500000D03*
X120500000Y-128500000D03*
X116500000Y-138500000D03*
X127500000Y-136500000D03*
X123500000Y-140500000D03*
X115500000Y-131500000D03*
X113500000Y-138500000D03*
X117500000Y-139500000D03*
X125500000Y-130500000D03*
X118500000Y-136500000D03*
X126500000Y-135500000D03*
X115500000Y-130500000D03*
X114500000Y-129500000D03*
X126500000Y-129500000D03*
X127500000Y-131500000D03*
X121500000Y-137500000D03*
X123500000Y-137500000D03*
X113500000Y-129500000D03*
X128500000Y-137500000D03*
X116500000Y-139500000D03*
X125500000Y-132500000D03*
X124500000Y-135500000D03*
X126500000Y-136500000D03*
X123500000Y-138500000D03*
X122500000Y-139500000D03*
X123500000Y-139500000D03*
X112500000Y-130500000D03*
X112500000Y-133500000D03*
X113500000Y-139500000D03*
X112500000Y-132500000D03*
X112500000Y-138500000D03*
X116500000Y-132500000D03*
X116500000Y-129500000D03*
X125500000Y-138500000D03*
X121500000Y-139500000D03*
X127500000Y-137500000D03*
X117500000Y-138500000D03*
X115500000Y-138500000D03*
X122500000Y-140500000D03*
X118500000Y-139500000D03*
X112500000Y-139500000D03*
X126500000Y-137500000D03*
X125500000Y-133500000D03*
X120500000Y-137500000D03*
X112500000Y-131500000D03*
X124500000Y-134500000D03*
X112500000Y-137500000D03*
X115500000Y-137500000D03*
X118500000Y-137500000D03*
X117500000Y-140500000D03*
X116500000Y-130500000D03*
X124500000Y-138500000D03*
X126500000Y-131500000D03*
X117500000Y-137500000D03*
X118500000Y-138500000D03*
X113500000Y-135500000D03*
X114500000Y-138500000D03*
X115500000Y-136500000D03*
X115500000Y-135500000D03*
X114500000Y-135500000D03*
X114500000Y-136500000D03*
X116500000Y-137500000D03*
X119500000Y-139500000D03*
X121500000Y-138500000D03*
X128500000Y-140500000D03*
X113500000Y-130500000D03*
X125500000Y-139500000D03*
X125500000Y-129500000D03*
X127500000Y-140500000D03*
X120500000Y-136500000D03*
X114500000Y-130500000D03*
X116500000Y-134500000D03*
X124500000Y-139500000D03*
X116500000Y-131500000D03*
X120500000Y-139500000D03*
X121500000Y-140500000D03*
X125500000Y-135500000D03*
X113500000Y-136500000D03*
X128500000Y-136500000D03*
X127500000Y-132500000D03*
X124500000Y-131500000D03*
X115500000Y-132500000D03*
X124500000Y-129500000D03*
X127500000Y-139500000D03*
X115500000Y-134500000D03*
X127500000Y-133500000D03*
X124500000Y-136500000D03*
%TO.N,Net-(Q1-B)*%
X120500000Y-123000000D03*
%TO.N,Net-(Q1-E)*%
X125500000Y-118500000D03*
%TO.N,Net-(U2-ADJ)*%
X137500000Y-116000000D03*
X134200000Y-110100000D03*
%TO.N,Net-(U1-PB1)*%
X118500000Y-118500000D03*
%TO.N,Net-(U1-XTAL2{slash}PB4)*%
X116000000Y-109000000D03*
%TD*%
D24*
%TO.N,VEE*%
X125500000Y-116000000D02*
X127500000Y-116000000D01*
X131640000Y-113270000D02*
X130230000Y-113270000D01*
X130230000Y-113270000D02*
X127500000Y-116000000D01*
%TO.N,VCC*%
X121000000Y-109380000D02*
X121000000Y-107500000D01*
X118500000Y-104500000D02*
X120000000Y-104500000D01*
%TO.N,GND*%
X132910000Y-112000000D02*
X132910000Y-116910000D01*
X131500000Y-116730000D02*
X132730000Y-116730000D01*
X132910000Y-112000000D02*
X128500000Y-112000000D01*
X130550000Y-123450000D02*
X133500000Y-120500000D01*
X105631000Y-110631000D02*
X127131000Y-110631000D01*
X132910000Y-116910000D02*
X133000000Y-117000000D01*
X130550000Y-125000000D02*
X135950000Y-125000000D01*
X127131000Y-110631000D02*
X128500000Y-112000000D01*
X133000000Y-117000000D02*
X133500000Y-117500000D01*
X132730000Y-116730000D02*
X133000000Y-117000000D01*
X133500000Y-117500000D02*
X133500000Y-120500000D01*
X105500000Y-110500000D02*
X105631000Y-110631000D01*
X130550000Y-125000000D02*
X130550000Y-123450000D01*
%TO.N,Net-(J3-Pin_1)*%
X120525000Y-128525000D02*
X120525000Y-132175000D01*
X120500000Y-128500000D02*
X120525000Y-128525000D01*
X119200000Y-133500000D02*
X120525000Y-132175000D01*
X121850000Y-133500000D02*
X120525000Y-132175000D01*
%TO.N,Net-(Q1-B)*%
X128000000Y-117500000D02*
X128500000Y-118000000D01*
X121000000Y-118500000D02*
X124000000Y-118500000D01*
X120500000Y-123000000D02*
X120500000Y-119000000D01*
X124000000Y-118500000D02*
X125000000Y-117500000D01*
X125000000Y-117500000D02*
X128000000Y-117500000D01*
X128500000Y-118000000D02*
X131500000Y-118000000D01*
X120500000Y-119000000D02*
X121000000Y-118500000D01*
%TO.N,Net-(Q1-E)*%
X124050000Y-119950000D02*
X125500000Y-118500000D01*
X126270000Y-119270000D02*
X125500000Y-118500000D01*
X122500000Y-119950000D02*
X124050000Y-119950000D01*
X131500000Y-119270000D02*
X126270000Y-119270000D01*
%TO.N,Net-(Q2-G)*%
X122805000Y-123355000D02*
X122500000Y-123050000D01*
X122805000Y-125875000D02*
X122805000Y-123355000D01*
%TO.N,Net-(U2-ADJ)*%
X134200000Y-110100000D02*
X137500000Y-113400000D01*
X137500000Y-113400000D02*
X137500000Y-116000000D01*
%TO.N,Net-(U1-PB1)*%
X118500000Y-116960000D02*
X118500000Y-118500000D01*
X121000000Y-114460000D02*
X118500000Y-116960000D01*
D25*
%TO.N,Net-(Q2-S)*%
X106500000Y-125820000D02*
X118190000Y-125820000D01*
D24*
%TO.N,Net-(U1-XTAL2{slash}PB4)*%
X115400000Y-104500000D02*
X115400000Y-108400000D01*
X115400000Y-108400000D02*
X116000000Y-109000000D01*
%TD*%
%TA.AperFunction,Conductor*%
%TO.N,Net-(J3-Pin_1)*%
G36*
X104452329Y-128019685D02*
G01*
X104472971Y-128036319D01*
X104497477Y-128060825D01*
X104760961Y-128270946D01*
X105046314Y-128450246D01*
X105349949Y-128596469D01*
X105588848Y-128680063D01*
X105668034Y-128707772D01*
X105668046Y-128707776D01*
X105996606Y-128782767D01*
X106331492Y-128820499D01*
X106331493Y-128820500D01*
X106331496Y-128820500D01*
X118358507Y-128820500D01*
X118358507Y-128820499D01*
X118693394Y-128782767D01*
X119021954Y-128707776D01*
X119340051Y-128596469D01*
X119643686Y-128450246D01*
X119929039Y-128270946D01*
X120192523Y-128060825D01*
X120217029Y-128036319D01*
X120278352Y-128002834D01*
X120304710Y-128000000D01*
X138875500Y-128000000D01*
X138942539Y-128019685D01*
X138988294Y-128072489D01*
X138999500Y-128124000D01*
X138999500Y-144997128D01*
X138999368Y-145002855D01*
X138982703Y-145363303D01*
X138981646Y-145374707D01*
X138932192Y-145729231D01*
X138930087Y-145740490D01*
X138848135Y-146088931D01*
X138845001Y-146099947D01*
X138731243Y-146439355D01*
X138727105Y-146450035D01*
X138582523Y-146777482D01*
X138577418Y-146787735D01*
X138403234Y-147100452D01*
X138397205Y-147110190D01*
X138194906Y-147405512D01*
X138188003Y-147414652D01*
X137959328Y-147690035D01*
X137951612Y-147698499D01*
X137698499Y-147951612D01*
X137690035Y-147959328D01*
X137414652Y-148188003D01*
X137405512Y-148194906D01*
X137110190Y-148397205D01*
X137100452Y-148403234D01*
X136787735Y-148577418D01*
X136777482Y-148582523D01*
X136450035Y-148727105D01*
X136439355Y-148731243D01*
X136099947Y-148845001D01*
X136088931Y-148848135D01*
X135740490Y-148930087D01*
X135729231Y-148932192D01*
X135374707Y-148981646D01*
X135363303Y-148982703D01*
X135002855Y-148999368D01*
X134997128Y-148999500D01*
X105002872Y-148999500D01*
X104997145Y-148999368D01*
X104636696Y-148982703D01*
X104625292Y-148981646D01*
X104270768Y-148932192D01*
X104259509Y-148930087D01*
X103911068Y-148848135D01*
X103900052Y-148845001D01*
X103560644Y-148731243D01*
X103549964Y-148727105D01*
X103222517Y-148582523D01*
X103212264Y-148577418D01*
X102899547Y-148403234D01*
X102889809Y-148397205D01*
X102594487Y-148194906D01*
X102585347Y-148188003D01*
X102309964Y-147959328D01*
X102301500Y-147951612D01*
X102048387Y-147698499D01*
X102040671Y-147690035D01*
X101811996Y-147414652D01*
X101805093Y-147405512D01*
X101801317Y-147400000D01*
X101703451Y-147257132D01*
X101602794Y-147110190D01*
X101596765Y-147100452D01*
X101422581Y-146787735D01*
X101417476Y-146777482D01*
X101334259Y-146589013D01*
X101272889Y-146450022D01*
X101268761Y-146439368D01*
X101154994Y-146099934D01*
X101151867Y-146088944D01*
X101069910Y-145740482D01*
X101067807Y-145729231D01*
X101064542Y-145705827D01*
X101018352Y-145374700D01*
X101017296Y-145363303D01*
X101011399Y-145235760D01*
X101000632Y-145002855D01*
X101000500Y-144997128D01*
X101000500Y-143969953D01*
X128150000Y-143969953D01*
X128150000Y-144750000D01*
X129895879Y-144750000D01*
X129876901Y-144795818D01*
X129850000Y-144931056D01*
X129850000Y-145068944D01*
X129876901Y-145204182D01*
X129895879Y-145250000D01*
X128150000Y-145250000D01*
X128150000Y-146030046D01*
X128156203Y-146129967D01*
X128156204Y-146129970D01*
X128205518Y-146365156D01*
X128205521Y-146365166D01*
X128292867Y-146589013D01*
X128415880Y-146795457D01*
X128571180Y-146978817D01*
X128571182Y-146978819D01*
X128754542Y-147134119D01*
X128960986Y-147257132D01*
X129184833Y-147344478D01*
X129184843Y-147344481D01*
X129420029Y-147393795D01*
X129420032Y-147393796D01*
X129519953Y-147399999D01*
X129519973Y-147400000D01*
X130300000Y-147400000D01*
X130300000Y-145654120D01*
X130345818Y-145673099D01*
X130481056Y-145700000D01*
X130618944Y-145700000D01*
X130754182Y-145673099D01*
X130800000Y-145654120D01*
X130800000Y-147400000D01*
X131580027Y-147400000D01*
X131580046Y-147399999D01*
X131679967Y-147393796D01*
X131679970Y-147393795D01*
X131915156Y-147344481D01*
X131915166Y-147344478D01*
X132139013Y-147257132D01*
X132345457Y-147134119D01*
X132528817Y-146978819D01*
X132528819Y-146978817D01*
X132684119Y-146795457D01*
X132807132Y-146589013D01*
X132894478Y-146365166D01*
X132894481Y-146365156D01*
X132943795Y-146129970D01*
X132943796Y-146129967D01*
X132949999Y-146030046D01*
X132950000Y-146030027D01*
X132950000Y-145250000D01*
X131204121Y-145250000D01*
X131223099Y-145204182D01*
X131250000Y-145068944D01*
X131250000Y-144931056D01*
X131223099Y-144795818D01*
X131204121Y-144750000D01*
X132950000Y-144750000D01*
X132950000Y-143969972D01*
X132949999Y-143969953D01*
X133550000Y-143969953D01*
X133550000Y-144750000D01*
X135295879Y-144750000D01*
X135276901Y-144795818D01*
X135250000Y-144931056D01*
X135250000Y-145068944D01*
X135276901Y-145204182D01*
X135295879Y-145250000D01*
X133550000Y-145250000D01*
X133550000Y-146030046D01*
X133556203Y-146129967D01*
X133556204Y-146129970D01*
X133605518Y-146365156D01*
X133605521Y-146365166D01*
X133692867Y-146589013D01*
X133815880Y-146795457D01*
X133971180Y-146978817D01*
X133971182Y-146978819D01*
X134154542Y-147134119D01*
X134360986Y-147257132D01*
X134584833Y-147344478D01*
X134584843Y-147344481D01*
X134820029Y-147393795D01*
X134820032Y-147393796D01*
X134919953Y-147399999D01*
X134919973Y-147400000D01*
X135700000Y-147400000D01*
X135700000Y-145654120D01*
X135745818Y-145673099D01*
X135881056Y-145700000D01*
X136018944Y-145700000D01*
X136154182Y-145673099D01*
X136200000Y-145654120D01*
X136200000Y-147400000D01*
X136980027Y-147400000D01*
X136980046Y-147399999D01*
X137079967Y-147393796D01*
X137079970Y-147393795D01*
X137315156Y-147344481D01*
X137315166Y-147344478D01*
X137539013Y-147257132D01*
X137745457Y-147134119D01*
X137928817Y-146978819D01*
X137928819Y-146978817D01*
X138084119Y-146795457D01*
X138207132Y-146589013D01*
X138294478Y-146365166D01*
X138294481Y-146365156D01*
X138343795Y-146129970D01*
X138343796Y-146129967D01*
X138349999Y-146030046D01*
X138350000Y-146030027D01*
X138350000Y-145250000D01*
X136604121Y-145250000D01*
X136623099Y-145204182D01*
X136650000Y-145068944D01*
X136650000Y-144931056D01*
X136623099Y-144795818D01*
X136604121Y-144750000D01*
X138350000Y-144750000D01*
X138350000Y-143969972D01*
X138349999Y-143969953D01*
X138343796Y-143870032D01*
X138343795Y-143870029D01*
X138294481Y-143634843D01*
X138294478Y-143634833D01*
X138207132Y-143410986D01*
X138084119Y-143204542D01*
X137928819Y-143021182D01*
X137928817Y-143021180D01*
X137745457Y-142865880D01*
X137539013Y-142742867D01*
X137315166Y-142655521D01*
X137315156Y-142655518D01*
X137079970Y-142606204D01*
X137079967Y-142606203D01*
X136980046Y-142600000D01*
X136200000Y-142600000D01*
X136200000Y-144345879D01*
X136154182Y-144326901D01*
X136018944Y-144300000D01*
X135881056Y-144300000D01*
X135745818Y-144326901D01*
X135700000Y-144345879D01*
X135700000Y-142600000D01*
X134919953Y-142600000D01*
X134820032Y-142606203D01*
X134820029Y-142606204D01*
X134584843Y-142655518D01*
X134584833Y-142655521D01*
X134360986Y-142742867D01*
X134154542Y-142865880D01*
X133971182Y-143021180D01*
X133971180Y-143021182D01*
X133815880Y-143204542D01*
X133692867Y-143410986D01*
X133605521Y-143634833D01*
X133605518Y-143634843D01*
X133556204Y-143870029D01*
X133556203Y-143870032D01*
X133550000Y-143969953D01*
X132949999Y-143969953D01*
X132943796Y-143870032D01*
X132943795Y-143870029D01*
X132894481Y-143634843D01*
X132894478Y-143634833D01*
X132807132Y-143410986D01*
X132684119Y-143204542D01*
X132528819Y-143021182D01*
X132528817Y-143021180D01*
X132345457Y-142865880D01*
X132139013Y-142742867D01*
X131915166Y-142655521D01*
X131915156Y-142655518D01*
X131679970Y-142606204D01*
X131679967Y-142606203D01*
X131580046Y-142600000D01*
X130800000Y-142600000D01*
X130800000Y-144345879D01*
X130754182Y-144326901D01*
X130618944Y-144300000D01*
X130481056Y-144300000D01*
X130345818Y-144326901D01*
X130300000Y-144345879D01*
X130300000Y-142600000D01*
X129519953Y-142600000D01*
X129420032Y-142606203D01*
X129420029Y-142606204D01*
X129184843Y-142655518D01*
X129184833Y-142655521D01*
X128960986Y-142742867D01*
X128754542Y-142865880D01*
X128571182Y-143021180D01*
X128571180Y-143021182D01*
X128415880Y-143204542D01*
X128292867Y-143410986D01*
X128205521Y-143634833D01*
X128205518Y-143634843D01*
X128156204Y-143870029D01*
X128156203Y-143870032D01*
X128150000Y-143969953D01*
X101000500Y-143969953D01*
X101000500Y-128124000D01*
X101020185Y-128056961D01*
X101072989Y-128011206D01*
X101124500Y-128000000D01*
X104385290Y-128000000D01*
X104452329Y-128019685D01*
G37*
%TD.AperFunction*%
%TD*%
M02*
