%TF.GenerationSoftware,KiCad,Pcbnew,9.0.3*%
%TF.CreationDate,2025-07-24T09:06:34+02:00*%
%TF.ProjectId,turn-signal-flasher-6V,7475726e-2d73-4696-976e-616c2d666c61,rev?*%
%TF.SameCoordinates,Original*%
%TF.FileFunction,Copper,L2,Bot*%
%TF.FilePolarity,Positive*%
%FSLAX46Y46*%
G04 Gerber Fmt 4.6, Leading zero omitted, Abs format (unit mm)*
G04 Created by KiCad (PCBNEW 9.0.3) date 2025-07-24 09:06:34*
%MOMM*%
%LPD*%
G01*
G04 APERTURE LIST*
G04 Aperture macros list*
%AMRoundRect*
0 Rectangle with rounded corners*
0 $1 Rounding radius*
0 $2 $3 $4 $5 $6 $7 $8 $9 X,Y pos of 4 corners*
0 Add a 4 corners polygon primitive as box body*
4,1,4,$2,$3,$4,$5,$6,$7,$8,$9,$2,$3,0*
0 Add four circle primitives for the rounded corners*
1,1,$1+$1,$2,$3*
1,1,$1+$1,$4,$5*
1,1,$1+$1,$6,$7*
1,1,$1+$1,$8,$9*
0 Add four rect primitives between the rounded corners*
20,1,$1+$1,$2,$3,$4,$5,0*
20,1,$1+$1,$4,$5,$6,$7,0*
20,1,$1+$1,$6,$7,$8,$9,0*
20,1,$1+$1,$8,$9,$2,$3,0*%
G04 Aperture macros list end*
%TA.AperFunction,ComponentPad*%
%ADD10R,1.300000X1.300000*%
%TD*%
%TA.AperFunction,ComponentPad*%
%ADD11C,1.300000*%
%TD*%
%TA.AperFunction,ComponentPad*%
%ADD12RoundRect,0.950000X-0.950000X-0.950000X0.950000X-0.950000X0.950000X0.950000X-0.950000X0.950000X0*%
%TD*%
%TA.AperFunction,ComponentPad*%
%ADD13RoundRect,0.250000X-0.550000X0.550000X-0.550000X-0.550000X0.550000X-0.550000X0.550000X0.550000X0*%
%TD*%
%TA.AperFunction,ComponentPad*%
%ADD14C,1.600000*%
%TD*%
%TA.AperFunction,ComponentPad*%
%ADD15RoundRect,0.250000X-0.550000X-0.550000X0.550000X-0.550000X0.550000X0.550000X-0.550000X0.550000X0*%
%TD*%
%TA.AperFunction,ComponentPad*%
%ADD16C,2.400000*%
%TD*%
%TA.AperFunction,ComponentPad*%
%ADD17R,1.500000X1.050000*%
%TD*%
%TA.AperFunction,ComponentPad*%
%ADD18O,1.500000X1.050000*%
%TD*%
%TA.AperFunction,SMDPad,CuDef*%
%ADD19RoundRect,0.250000X0.625000X-0.400000X0.625000X0.400000X-0.625000X0.400000X-0.625000X-0.400000X0*%
%TD*%
%TA.AperFunction,SMDPad,CuDef*%
%ADD20RoundRect,0.250000X-0.400000X-0.625000X0.400000X-0.625000X0.400000X0.625000X-0.400000X0.625000X0*%
%TD*%
%TA.AperFunction,SMDPad,CuDef*%
%ADD21RoundRect,0.250000X-0.650000X0.412500X-0.650000X-0.412500X0.650000X-0.412500X0.650000X0.412500X0*%
%TD*%
%TA.AperFunction,SMDPad,CuDef*%
%ADD22RoundRect,0.250000X-0.412500X-0.650000X0.412500X-0.650000X0.412500X0.650000X-0.412500X0.650000X0*%
%TD*%
%TA.AperFunction,SMDPad,CuDef*%
%ADD23RoundRect,0.250000X-0.625000X0.400000X-0.625000X-0.400000X0.625000X-0.400000X0.625000X0.400000X0*%
%TD*%
%TA.AperFunction,ViaPad*%
%ADD24C,0.900000*%
%TD*%
%TA.AperFunction,Conductor*%
%ADD25C,0.300000*%
%TD*%
%TA.AperFunction,Conductor*%
%ADD26C,5.000000*%
%TD*%
G04 APERTURE END LIST*
D10*
%TO.P,U2,1,ADJ*%
%TO.N,Net-(U2-ADJ)*%
X131640000Y-110730000D03*
D11*
%TO.P,U2,2,VI*%
%TO.N,GND*%
X132910000Y-112000000D03*
%TO.P,U2,3,VO*%
%TO.N,VEE*%
X131640000Y-113270000D03*
%TD*%
D12*
%TO.P,J3,1,Pin_1*%
%TO.N,Net-(J3-Pin_1)*%
X130550000Y-145000000D03*
X135950000Y-145000000D03*
%TD*%
%TO.P,J1,1,Pin_1*%
%TO.N,VCC*%
X130500000Y-105000000D03*
X135900000Y-105000000D03*
%TD*%
D13*
%TO.P,C2,1*%
%TO.N,VCC*%
X125500000Y-114000000D03*
D14*
%TO.P,C2,2*%
%TO.N,VEE*%
X125500000Y-116000000D03*
%TD*%
D15*
%TO.P,U1,1,~{RESET}/PB5*%
%TO.N,unconnected-(U1-~{RESET}{slash}PB5-Pad1)*%
X113380000Y-109380000D03*
D14*
%TO.P,U1,2,XTAL1/PB3*%
%TO.N,Net-(U1-XTAL1{slash}PB3)*%
X113380000Y-111920000D03*
%TO.P,U1,3,XTAL2/PB4*%
%TO.N,Net-(U1-XTAL2{slash}PB4)*%
X113380000Y-114460000D03*
%TO.P,U1,4,GND*%
%TO.N,VEE*%
X113380000Y-117000000D03*
%TO.P,U1,5,AREF/PB0*%
%TO.N,unconnected-(U1-AREF{slash}PB0-Pad5)*%
X121000000Y-117000000D03*
%TO.P,U1,6,PB1*%
%TO.N,Net-(U1-PB1)*%
X121000000Y-114460000D03*
%TO.P,U1,7,PB2*%
%TO.N,unconnected-(U1-PB2-Pad7)*%
X121000000Y-111920000D03*
%TO.P,U1,8,VCC*%
%TO.N,VCC*%
X121000000Y-109380000D03*
%TD*%
D12*
%TO.P,J2,1,Pin_1*%
%TO.N,GND*%
X130550000Y-125000000D03*
X135950000Y-125000000D03*
%TD*%
D16*
%TO.P,R11,1*%
%TO.N,Net-(Q2-S)*%
X106500000Y-125820000D03*
%TO.P,R11,2*%
%TO.N,VCC*%
X106500000Y-105500000D03*
%TD*%
D17*
%TO.P,Q1,1,C*%
%TO.N,GND*%
X131500000Y-116730000D03*
D18*
%TO.P,Q1,2,B*%
%TO.N,Net-(Q1-B)*%
X131500000Y-118000000D03*
%TO.P,Q1,3,E*%
%TO.N,Net-(Q1-E)*%
X131500000Y-119270000D03*
%TD*%
D19*
%TO.P,R6,1*%
%TO.N,VCC*%
X122500000Y-123000000D03*
%TO.P,R6,2*%
%TO.N,Net-(Q1-E)*%
X122500000Y-119900000D03*
%TD*%
D20*
%TO.P,R4,1*%
%TO.N,GND*%
X107400000Y-110500000D03*
%TO.P,R4,2*%
%TO.N,Net-(U1-XTAL1{slash}PB3)*%
X110500000Y-110500000D03*
%TD*%
%TO.P,R9,1*%
%TO.N,Net-(J3-Pin_1)*%
X107400000Y-118500000D03*
%TO.P,R9,2*%
%TO.N,Net-(U1-XTAL2{slash}PB4)*%
X110500000Y-118500000D03*
%TD*%
D19*
%TO.P,R2,1*%
%TO.N,Net-(U2-ADJ)*%
X135500000Y-115050000D03*
%TO.P,R2,2*%
%TO.N,VEE*%
X135500000Y-111950000D03*
%TD*%
D21*
%TO.P,C1,1*%
%TO.N,VCC*%
X117500000Y-111875000D03*
%TO.P,C1,2*%
%TO.N,VEE*%
X117500000Y-115000000D03*
%TD*%
D22*
%TO.P,C3,1*%
%TO.N,VCC*%
X124500000Y-109000000D03*
%TO.P,C3,2*%
%TO.N,GND*%
X127625000Y-109000000D03*
%TD*%
D23*
%TO.P,R5,1*%
%TO.N,Net-(U1-PB1)*%
X118500000Y-119900000D03*
%TO.P,R5,2*%
%TO.N,Net-(Q1-B)*%
X118500000Y-123000000D03*
%TD*%
%TO.P,R10,1*%
%TO.N,VCC*%
X114500000Y-119900000D03*
%TO.P,R10,2*%
%TO.N,Net-(J3-Pin_1)*%
X114500000Y-123000000D03*
%TD*%
D20*
%TO.P,R3,1*%
%TO.N,VCC*%
X107400000Y-114500000D03*
%TO.P,R3,2*%
%TO.N,Net-(U1-XTAL1{slash}PB3)*%
X110500000Y-114500000D03*
%TD*%
D19*
%TO.P,R1,1*%
%TO.N,VCC*%
X135500000Y-120050000D03*
%TO.P,R1,2*%
%TO.N,Net-(U2-ADJ)*%
X135500000Y-116950000D03*
%TD*%
D24*
%TO.N,VCC*%
X121000000Y-107500000D03*
X120000000Y-104500000D03*
%TO.N,GND*%
X105500000Y-110500000D03*
%TO.N,Net-(J3-Pin_1)*%
X114500000Y-140500000D03*
X128500000Y-129500000D03*
X124500000Y-137500000D03*
X114500000Y-137500000D03*
X127500000Y-129500000D03*
X125500000Y-136500000D03*
X124500000Y-132500000D03*
X128500000Y-134500000D03*
X116500000Y-136500000D03*
X126500000Y-132500000D03*
X121500000Y-136500000D03*
X127500000Y-134500000D03*
X112500000Y-135500000D03*
X122500000Y-136500000D03*
X115500000Y-133500000D03*
X127500000Y-135500000D03*
X117500000Y-136500000D03*
X125500000Y-131500000D03*
X128500000Y-132500000D03*
X128500000Y-138500000D03*
X124500000Y-130500000D03*
X127500000Y-138500000D03*
X114500000Y-134500000D03*
X128500000Y-131500000D03*
X124500000Y-140500000D03*
X114500000Y-133500000D03*
X125500000Y-134500000D03*
X112500000Y-129500000D03*
X126500000Y-139500000D03*
X112500000Y-140500000D03*
X114500000Y-139500000D03*
X119500000Y-137500000D03*
X118500000Y-140500000D03*
X113500000Y-140500000D03*
X126500000Y-140500000D03*
X116500000Y-133500000D03*
X119500000Y-138500000D03*
X128500000Y-133500000D03*
X124500000Y-133500000D03*
X113500000Y-131500000D03*
X125500000Y-137500000D03*
X116500000Y-135500000D03*
X113500000Y-134500000D03*
X119500000Y-140500000D03*
X127500000Y-130500000D03*
X115500000Y-129500000D03*
X122500000Y-138500000D03*
X112500000Y-136500000D03*
X113500000Y-132500000D03*
X113500000Y-133500000D03*
X114500000Y-131500000D03*
X115500000Y-140500000D03*
X128500000Y-130500000D03*
X126500000Y-138500000D03*
X123500000Y-136500000D03*
X114500000Y-132500000D03*
X116500000Y-140500000D03*
X126500000Y-133500000D03*
X125500000Y-140500000D03*
X119500000Y-136500000D03*
X120500000Y-140500000D03*
X126500000Y-134500000D03*
X115500000Y-139500000D03*
X128500000Y-135500000D03*
X112500000Y-134500000D03*
X126500000Y-130500000D03*
X113500000Y-137500000D03*
X128500000Y-139500000D03*
X120500000Y-138500000D03*
X122500000Y-137500000D03*
X120500000Y-128500000D03*
X116500000Y-138500000D03*
X127500000Y-136500000D03*
X123500000Y-140500000D03*
X115500000Y-131500000D03*
X113500000Y-138500000D03*
X117500000Y-139500000D03*
X125500000Y-130500000D03*
X118500000Y-136500000D03*
X126500000Y-135500000D03*
X115500000Y-130500000D03*
X114500000Y-129500000D03*
X126500000Y-129500000D03*
X127500000Y-131500000D03*
X121500000Y-137500000D03*
X123500000Y-137500000D03*
X113500000Y-129500000D03*
X128500000Y-137500000D03*
X116500000Y-139500000D03*
X125500000Y-132500000D03*
X124500000Y-135500000D03*
X126500000Y-136500000D03*
X123500000Y-138500000D03*
X122500000Y-139500000D03*
X123500000Y-139500000D03*
X112500000Y-130500000D03*
X112500000Y-133500000D03*
X113500000Y-139500000D03*
X112500000Y-132500000D03*
X112500000Y-138500000D03*
X116500000Y-132500000D03*
X116500000Y-129500000D03*
X125500000Y-138500000D03*
X121500000Y-139500000D03*
X127500000Y-137500000D03*
X117500000Y-138500000D03*
X115500000Y-138500000D03*
X122500000Y-140500000D03*
X118500000Y-139500000D03*
X112500000Y-139500000D03*
X126500000Y-137500000D03*
X125500000Y-133500000D03*
X120500000Y-137500000D03*
X112500000Y-131500000D03*
X124500000Y-134500000D03*
X112500000Y-137500000D03*
X115500000Y-137500000D03*
X118500000Y-137500000D03*
X117500000Y-140500000D03*
X116500000Y-130500000D03*
X124500000Y-138500000D03*
X126500000Y-131500000D03*
X117500000Y-137500000D03*
X118500000Y-138500000D03*
X113500000Y-135500000D03*
X114500000Y-138500000D03*
X115500000Y-136500000D03*
X115500000Y-135500000D03*
X114500000Y-135500000D03*
X114500000Y-136500000D03*
X116500000Y-137500000D03*
X119500000Y-139500000D03*
X121500000Y-138500000D03*
X128500000Y-140500000D03*
X113500000Y-130500000D03*
X125500000Y-139500000D03*
X125500000Y-129500000D03*
X127500000Y-140500000D03*
X120500000Y-136500000D03*
X114500000Y-130500000D03*
X116500000Y-134500000D03*
X124500000Y-139500000D03*
X116500000Y-131500000D03*
X120500000Y-139500000D03*
X121500000Y-140500000D03*
X125500000Y-135500000D03*
X113500000Y-136500000D03*
X128500000Y-136500000D03*
X127500000Y-132500000D03*
X124500000Y-131500000D03*
X115500000Y-132500000D03*
X124500000Y-129500000D03*
X127500000Y-139500000D03*
X115500000Y-134500000D03*
X127500000Y-133500000D03*
X124500000Y-136500000D03*
%TO.N,Net-(Q1-B)*%
X120500000Y-123000000D03*
%TO.N,Net-(Q1-E)*%
X125500000Y-118500000D03*
%TO.N,Net-(U2-ADJ)*%
X137500000Y-116000000D03*
X134200000Y-110100000D03*
%TO.N,Net-(U1-PB1)*%
X118500000Y-118500000D03*
%TO.N,Net-(U1-XTAL2{slash}PB4)*%
X116000000Y-109000000D03*
%TD*%
D25*
%TO.N,VEE*%
X113380000Y-117000000D02*
X115500000Y-117000000D01*
X118211000Y-115711000D02*
X125211000Y-115711000D01*
X115500000Y-117000000D02*
X117500000Y-115000000D01*
X117500000Y-115000000D02*
X118211000Y-115711000D01*
X134180000Y-113270000D02*
X135500000Y-111950000D01*
X125211000Y-115711000D02*
X125500000Y-116000000D01*
X131640000Y-113270000D02*
X134180000Y-113270000D01*
D26*
%TO.N,VCC*%
X129500000Y-105000000D02*
X130500000Y-105000000D01*
X135896847Y-103814684D02*
X135896850Y-103814687D01*
X135900000Y-105000000D02*
X136499000Y-105599000D01*
X134711531Y-105000000D02*
X135896847Y-103814684D01*
X106500000Y-105500000D02*
X107000000Y-105500000D01*
X130500000Y-105000000D02*
X134711531Y-105000000D01*
X136499000Y-105599000D02*
X136499000Y-105900000D01*
D25*
%TO.N,GND*%
X107400000Y-110500000D02*
X105500000Y-110500000D01*
X130625000Y-112000000D02*
X132910000Y-112000000D01*
X127625000Y-109000000D02*
X130625000Y-112000000D01*
X127625000Y-109000000D02*
X127625000Y-109165000D01*
%TO.N,Net-(J3-Pin_1)*%
X107400000Y-119900000D02*
X110500000Y-123000000D01*
X110500000Y-123000000D02*
X114500000Y-123000000D01*
X120500000Y-128500000D02*
X120525000Y-128525000D01*
X120500000Y-128500000D02*
X115000000Y-123000000D01*
X107400000Y-118500000D02*
X107400000Y-119900000D01*
X115000000Y-123000000D02*
X114500000Y-123000000D01*
%TO.N,Net-(Q1-B)*%
X118500000Y-123000000D02*
X120500000Y-123000000D01*
%TO.N,Net-(Q1-E)*%
X124100000Y-119900000D02*
X125500000Y-118500000D01*
X122500000Y-119900000D02*
X124100000Y-119900000D01*
%TO.N,Net-(U2-ADJ)*%
X135500000Y-115050000D02*
X135500000Y-116950000D01*
X133400000Y-110100000D02*
X134200000Y-110100000D01*
X131640000Y-110730000D02*
X132770000Y-110730000D01*
X136550000Y-116950000D02*
X137500000Y-116000000D01*
X132770000Y-110730000D02*
X133400000Y-110100000D01*
X135500000Y-116950000D02*
X136550000Y-116950000D01*
%TO.N,Net-(U1-XTAL1{slash}PB3)*%
X110500000Y-114500000D02*
X110500000Y-113340000D01*
X110500000Y-113340000D02*
X111920000Y-111920000D01*
X113380000Y-111920000D02*
X111920000Y-111920000D01*
X111920000Y-111920000D02*
X110500000Y-110500000D01*
%TO.N,Net-(U1-PB1)*%
X118500000Y-119900000D02*
X118500000Y-118500000D01*
%TO.N,Net-(U1-XTAL2{slash}PB4)*%
X110500000Y-118500000D02*
X110500000Y-118110818D01*
X110500000Y-118110818D02*
X113380000Y-115230818D01*
X113380000Y-114460000D02*
X114631000Y-113209000D01*
X114631000Y-110369000D02*
X116000000Y-109000000D01*
X113380000Y-115230818D02*
X113380000Y-114460000D01*
X114631000Y-113209000D02*
X114631000Y-110369000D01*
%TD*%
%TA.AperFunction,Conductor*%
%TO.N,Net-(J3-Pin_1)*%
G36*
X138942539Y-128019685D02*
G01*
X138988294Y-128072489D01*
X138999500Y-128124000D01*
X138999500Y-144997128D01*
X138999368Y-145002855D01*
X138982703Y-145363303D01*
X138981646Y-145374707D01*
X138932192Y-145729231D01*
X138930087Y-145740490D01*
X138848135Y-146088931D01*
X138845001Y-146099947D01*
X138731243Y-146439355D01*
X138727105Y-146450035D01*
X138582523Y-146777482D01*
X138577418Y-146787735D01*
X138403234Y-147100452D01*
X138397205Y-147110190D01*
X138194906Y-147405512D01*
X138188003Y-147414652D01*
X137959328Y-147690035D01*
X137951612Y-147698499D01*
X137698499Y-147951612D01*
X137690035Y-147959328D01*
X137414652Y-148188003D01*
X137405512Y-148194906D01*
X137110190Y-148397205D01*
X137100452Y-148403234D01*
X136787735Y-148577418D01*
X136777482Y-148582523D01*
X136450035Y-148727105D01*
X136439355Y-148731243D01*
X136099947Y-148845001D01*
X136088931Y-148848135D01*
X135740490Y-148930087D01*
X135729231Y-148932192D01*
X135374707Y-148981646D01*
X135363303Y-148982703D01*
X135002855Y-148999368D01*
X134997128Y-148999500D01*
X105002872Y-148999500D01*
X104997145Y-148999368D01*
X104636696Y-148982703D01*
X104625292Y-148981646D01*
X104270768Y-148932192D01*
X104259509Y-148930087D01*
X103911068Y-148848135D01*
X103900052Y-148845001D01*
X103560644Y-148731243D01*
X103549964Y-148727105D01*
X103222517Y-148582523D01*
X103212264Y-148577418D01*
X102899547Y-148403234D01*
X102889809Y-148397205D01*
X102594487Y-148194906D01*
X102585347Y-148188003D01*
X102309964Y-147959328D01*
X102301500Y-147951612D01*
X102048387Y-147698499D01*
X102040671Y-147690035D01*
X101811996Y-147414652D01*
X101805093Y-147405512D01*
X101801317Y-147400000D01*
X101703451Y-147257132D01*
X101602794Y-147110190D01*
X101596765Y-147100452D01*
X101422581Y-146787735D01*
X101417476Y-146777482D01*
X101334259Y-146589013D01*
X101272889Y-146450022D01*
X101268761Y-146439368D01*
X101154994Y-146099934D01*
X101151867Y-146088944D01*
X101069910Y-145740482D01*
X101067807Y-145729231D01*
X101064542Y-145705827D01*
X101018352Y-145374700D01*
X101017296Y-145363303D01*
X101011399Y-145235760D01*
X101000632Y-145002855D01*
X101000500Y-144997128D01*
X101000500Y-143969953D01*
X128150000Y-143969953D01*
X128150000Y-144750000D01*
X129895879Y-144750000D01*
X129876901Y-144795818D01*
X129850000Y-144931056D01*
X129850000Y-145068944D01*
X129876901Y-145204182D01*
X129895879Y-145250000D01*
X128150000Y-145250000D01*
X128150000Y-146030046D01*
X128156203Y-146129967D01*
X128156204Y-146129970D01*
X128205518Y-146365156D01*
X128205521Y-146365166D01*
X128292867Y-146589013D01*
X128415880Y-146795457D01*
X128571180Y-146978817D01*
X128571182Y-146978819D01*
X128754542Y-147134119D01*
X128960986Y-147257132D01*
X129184833Y-147344478D01*
X129184843Y-147344481D01*
X129420029Y-147393795D01*
X129420032Y-147393796D01*
X129519953Y-147399999D01*
X129519973Y-147400000D01*
X130300000Y-147400000D01*
X130300000Y-145654120D01*
X130345818Y-145673099D01*
X130481056Y-145700000D01*
X130618944Y-145700000D01*
X130754182Y-145673099D01*
X130800000Y-145654120D01*
X130800000Y-147400000D01*
X131580027Y-147400000D01*
X131580046Y-147399999D01*
X131679967Y-147393796D01*
X131679970Y-147393795D01*
X131915156Y-147344481D01*
X131915166Y-147344478D01*
X132139013Y-147257132D01*
X132345457Y-147134119D01*
X132528817Y-146978819D01*
X132528819Y-146978817D01*
X132684119Y-146795457D01*
X132807132Y-146589013D01*
X132894478Y-146365166D01*
X132894481Y-146365156D01*
X132943795Y-146129970D01*
X132943796Y-146129967D01*
X132949999Y-146030046D01*
X132950000Y-146030027D01*
X132950000Y-145250000D01*
X131204121Y-145250000D01*
X131223099Y-145204182D01*
X131250000Y-145068944D01*
X131250000Y-144931056D01*
X131223099Y-144795818D01*
X131204121Y-144750000D01*
X132950000Y-144750000D01*
X132950000Y-143969972D01*
X132949999Y-143969953D01*
X133550000Y-143969953D01*
X133550000Y-144750000D01*
X135295879Y-144750000D01*
X135276901Y-144795818D01*
X135250000Y-144931056D01*
X135250000Y-145068944D01*
X135276901Y-145204182D01*
X135295879Y-145250000D01*
X133550000Y-145250000D01*
X133550000Y-146030046D01*
X133556203Y-146129967D01*
X133556204Y-146129970D01*
X133605518Y-146365156D01*
X133605521Y-146365166D01*
X133692867Y-146589013D01*
X133815880Y-146795457D01*
X133971180Y-146978817D01*
X133971182Y-146978819D01*
X134154542Y-147134119D01*
X134360986Y-147257132D01*
X134584833Y-147344478D01*
X134584843Y-147344481D01*
X134820029Y-147393795D01*
X134820032Y-147393796D01*
X134919953Y-147399999D01*
X134919973Y-147400000D01*
X135700000Y-147400000D01*
X135700000Y-145654120D01*
X135745818Y-145673099D01*
X135881056Y-145700000D01*
X136018944Y-145700000D01*
X136154182Y-145673099D01*
X136200000Y-145654120D01*
X136200000Y-147400000D01*
X136980027Y-147400000D01*
X136980046Y-147399999D01*
X137079967Y-147393796D01*
X137079970Y-147393795D01*
X137315156Y-147344481D01*
X137315166Y-147344478D01*
X137539013Y-147257132D01*
X137745457Y-147134119D01*
X137928817Y-146978819D01*
X137928819Y-146978817D01*
X138084119Y-146795457D01*
X138207132Y-146589013D01*
X138294478Y-146365166D01*
X138294481Y-146365156D01*
X138343795Y-146129970D01*
X138343796Y-146129967D01*
X138349999Y-146030046D01*
X138350000Y-146030027D01*
X138350000Y-145250000D01*
X136604121Y-145250000D01*
X136623099Y-145204182D01*
X136650000Y-145068944D01*
X136650000Y-144931056D01*
X136623099Y-144795818D01*
X136604121Y-144750000D01*
X138350000Y-144750000D01*
X138350000Y-143969972D01*
X138349999Y-143969953D01*
X138343796Y-143870032D01*
X138343795Y-143870029D01*
X138294481Y-143634843D01*
X138294478Y-143634833D01*
X138207132Y-143410986D01*
X138084119Y-143204542D01*
X137928819Y-143021182D01*
X137928817Y-143021180D01*
X137745457Y-142865880D01*
X137539013Y-142742867D01*
X137315166Y-142655521D01*
X137315156Y-142655518D01*
X137079970Y-142606204D01*
X137079967Y-142606203D01*
X136980046Y-142600000D01*
X136200000Y-142600000D01*
X136200000Y-144345879D01*
X136154182Y-144326901D01*
X136018944Y-144300000D01*
X135881056Y-144300000D01*
X135745818Y-144326901D01*
X135700000Y-144345879D01*
X135700000Y-142600000D01*
X134919953Y-142600000D01*
X134820032Y-142606203D01*
X134820029Y-142606204D01*
X134584843Y-142655518D01*
X134584833Y-142655521D01*
X134360986Y-142742867D01*
X134154542Y-142865880D01*
X133971182Y-143021180D01*
X133971180Y-143021182D01*
X133815880Y-143204542D01*
X133692867Y-143410986D01*
X133605521Y-143634833D01*
X133605518Y-143634843D01*
X133556204Y-143870029D01*
X133556203Y-143870032D01*
X133550000Y-143969953D01*
X132949999Y-143969953D01*
X132943796Y-143870032D01*
X132943795Y-143870029D01*
X132894481Y-143634843D01*
X132894478Y-143634833D01*
X132807132Y-143410986D01*
X132684119Y-143204542D01*
X132528819Y-143021182D01*
X132528817Y-143021180D01*
X132345457Y-142865880D01*
X132139013Y-142742867D01*
X131915166Y-142655521D01*
X131915156Y-142655518D01*
X131679970Y-142606204D01*
X131679967Y-142606203D01*
X131580046Y-142600000D01*
X130800000Y-142600000D01*
X130800000Y-144345879D01*
X130754182Y-144326901D01*
X130618944Y-144300000D01*
X130481056Y-144300000D01*
X130345818Y-144326901D01*
X130300000Y-144345879D01*
X130300000Y-142600000D01*
X129519953Y-142600000D01*
X129420032Y-142606203D01*
X129420029Y-142606204D01*
X129184843Y-142655518D01*
X129184833Y-142655521D01*
X128960986Y-142742867D01*
X128754542Y-142865880D01*
X128571182Y-143021180D01*
X128571180Y-143021182D01*
X128415880Y-143204542D01*
X128292867Y-143410986D01*
X128205521Y-143634833D01*
X128205518Y-143634843D01*
X128156204Y-143870029D01*
X128156203Y-143870032D01*
X128150000Y-143969953D01*
X101000500Y-143969953D01*
X101000500Y-128124000D01*
X101020185Y-128056961D01*
X101072989Y-128011206D01*
X101124500Y-128000000D01*
X138875500Y-128000000D01*
X138942539Y-128019685D01*
G37*
%TD.AperFunction*%
%TD*%
%TA.AperFunction,Conductor*%
%TO.N,VCC*%
G36*
X135002855Y-101000632D02*
G01*
X135363310Y-101017296D01*
X135374700Y-101018352D01*
X135729238Y-101067808D01*
X135740482Y-101069910D01*
X136088944Y-101151867D01*
X136099934Y-101154994D01*
X136439368Y-101268761D01*
X136450022Y-101272889D01*
X136777488Y-101417479D01*
X136787735Y-101422581D01*
X137100452Y-101596765D01*
X137110190Y-101602794D01*
X137405512Y-101805093D01*
X137414652Y-101811996D01*
X137690035Y-102040671D01*
X137698499Y-102048387D01*
X137951612Y-102301500D01*
X137959328Y-102309964D01*
X138188003Y-102585347D01*
X138194906Y-102594487D01*
X138397205Y-102889809D01*
X138403234Y-102899547D01*
X138577418Y-103212264D01*
X138582523Y-103222517D01*
X138727105Y-103549964D01*
X138731243Y-103560644D01*
X138845001Y-103900052D01*
X138848135Y-103911068D01*
X138930087Y-104259509D01*
X138932192Y-104270768D01*
X138981646Y-104625292D01*
X138982703Y-104636696D01*
X138999368Y-104997144D01*
X138999500Y-105002871D01*
X138999500Y-124876000D01*
X138979815Y-124943039D01*
X138927011Y-124988794D01*
X138875500Y-125000000D01*
X138474499Y-125000000D01*
X138407460Y-124980315D01*
X138361705Y-124927511D01*
X138350499Y-124876000D01*
X138350499Y-123969944D01*
X138350499Y-123969941D01*
X138350499Y-123969932D01*
X138344294Y-123869969D01*
X138294963Y-123634701D01*
X138294961Y-123634696D01*
X138294959Y-123634689D01*
X138207583Y-123410765D01*
X138207582Y-123410762D01*
X138084533Y-123204260D01*
X138084531Y-123204258D01*
X138084529Y-123204254D01*
X137929173Y-123020826D01*
X137745745Y-122865470D01*
X137551962Y-122750000D01*
X137539238Y-122742418D01*
X137539236Y-122742417D01*
X137539234Y-122742416D01*
X137315310Y-122655040D01*
X137315300Y-122655037D01*
X137080032Y-122605706D01*
X137080029Y-122605705D01*
X136992479Y-122600270D01*
X136980069Y-122599500D01*
X136980067Y-122599500D01*
X134919944Y-122599500D01*
X134919921Y-122599501D01*
X134819968Y-122605706D01*
X134584699Y-122655037D01*
X134584689Y-122655040D01*
X134360765Y-122742416D01*
X134154254Y-122865470D01*
X133970826Y-123020826D01*
X133815470Y-123204254D01*
X133692416Y-123410765D01*
X133605040Y-123634689D01*
X133605037Y-123634699D01*
X133555706Y-123869967D01*
X133555705Y-123869970D01*
X133549500Y-123969922D01*
X133549500Y-123969931D01*
X133549500Y-124876001D01*
X133529817Y-124943039D01*
X133477013Y-124988794D01*
X133425501Y-125000000D01*
X133074499Y-125000000D01*
X133007460Y-124980315D01*
X132961705Y-124927511D01*
X132950499Y-124876000D01*
X132950499Y-123969944D01*
X132950499Y-123969941D01*
X132950499Y-123969932D01*
X132944294Y-123869969D01*
X132894963Y-123634701D01*
X132894961Y-123634696D01*
X132894959Y-123634689D01*
X132807583Y-123410765D01*
X132807582Y-123410762D01*
X132684533Y-123204260D01*
X132684531Y-123204258D01*
X132684529Y-123204254D01*
X132529173Y-123020826D01*
X132345745Y-122865470D01*
X132151962Y-122750000D01*
X132139238Y-122742418D01*
X132139236Y-122742417D01*
X132139234Y-122742416D01*
X131915310Y-122655040D01*
X131915300Y-122655037D01*
X131680032Y-122605706D01*
X131680029Y-122605705D01*
X131592479Y-122600270D01*
X131580069Y-122599500D01*
X131580067Y-122599500D01*
X129519944Y-122599500D01*
X129519921Y-122599501D01*
X129419968Y-122605706D01*
X129184699Y-122655037D01*
X129184689Y-122655040D01*
X128960765Y-122742416D01*
X128754254Y-122865470D01*
X128570826Y-123020826D01*
X128415470Y-123204254D01*
X128292416Y-123410765D01*
X128205040Y-123634689D01*
X128205037Y-123634699D01*
X128155706Y-123869967D01*
X128155705Y-123869970D01*
X128149500Y-123969922D01*
X128149500Y-123969931D01*
X128149500Y-124876001D01*
X128129817Y-124943039D01*
X128077013Y-124988794D01*
X128025501Y-125000000D01*
X117971308Y-125000000D01*
X117904269Y-124980315D01*
X117883627Y-124963681D01*
X115911818Y-122991872D01*
X115878333Y-122930549D01*
X115875499Y-122904191D01*
X115875499Y-122549999D01*
X115875498Y-122549983D01*
X117124500Y-122549983D01*
X117124500Y-123450001D01*
X117124501Y-123450019D01*
X117135000Y-123552796D01*
X117135001Y-123552797D01*
X117190186Y-123719334D01*
X117282288Y-123868656D01*
X117406344Y-123992712D01*
X117555666Y-124084814D01*
X117722203Y-124139999D01*
X117824991Y-124150500D01*
X119175008Y-124150499D01*
X119277797Y-124139999D01*
X119444334Y-124084814D01*
X119593656Y-123992712D01*
X119717712Y-123868656D01*
X119758618Y-123802335D01*
X119810564Y-123755612D01*
X119879527Y-123744389D01*
X119933047Y-123764331D01*
X120049762Y-123842318D01*
X120049768Y-123842321D01*
X120049769Y-123842322D01*
X120222749Y-123913973D01*
X120406379Y-123950499D01*
X120406383Y-123950500D01*
X120406384Y-123950500D01*
X120593617Y-123950500D01*
X120593618Y-123950499D01*
X120777251Y-123913973D01*
X120950231Y-123842322D01*
X121067369Y-123764052D01*
X121134045Y-123743175D01*
X121201425Y-123761659D01*
X121241798Y-123802058D01*
X121282684Y-123868345D01*
X121406654Y-123992315D01*
X121555875Y-124084356D01*
X121555880Y-124084358D01*
X121722302Y-124139505D01*
X121722309Y-124139506D01*
X121825019Y-124149999D01*
X122249999Y-124149999D01*
X122750000Y-124149999D01*
X123174972Y-124149999D01*
X123174986Y-124149998D01*
X123277697Y-124139505D01*
X123444119Y-124084358D01*
X123444124Y-124084356D01*
X123593345Y-123992315D01*
X123717315Y-123868345D01*
X123809356Y-123719124D01*
X123809358Y-123719119D01*
X123864505Y-123552697D01*
X123864506Y-123552690D01*
X123874999Y-123449986D01*
X123875000Y-123449973D01*
X123875000Y-123250000D01*
X122750000Y-123250000D01*
X122750000Y-124149999D01*
X122249999Y-124149999D01*
X122250000Y-124149998D01*
X122250000Y-122750000D01*
X122750000Y-122750000D01*
X123874999Y-122750000D01*
X123874999Y-122550028D01*
X123874998Y-122550013D01*
X123864505Y-122447302D01*
X123809358Y-122280880D01*
X123809356Y-122280875D01*
X123717315Y-122131654D01*
X123593345Y-122007684D01*
X123444124Y-121915643D01*
X123444119Y-121915641D01*
X123277697Y-121860494D01*
X123277690Y-121860493D01*
X123174986Y-121850000D01*
X122750000Y-121850000D01*
X122750000Y-122750000D01*
X122250000Y-122750000D01*
X122250000Y-121850000D01*
X121825028Y-121850000D01*
X121825012Y-121850001D01*
X121722302Y-121860494D01*
X121555880Y-121915641D01*
X121555875Y-121915643D01*
X121406654Y-122007684D01*
X121282683Y-122131655D01*
X121282680Y-122131659D01*
X121241797Y-122197941D01*
X121189849Y-122244666D01*
X121120887Y-122255887D01*
X121067368Y-122235946D01*
X120950237Y-122157681D01*
X120950228Y-122157676D01*
X120777251Y-122086027D01*
X120777243Y-122086025D01*
X120593620Y-122049500D01*
X120593616Y-122049500D01*
X120406384Y-122049500D01*
X120406379Y-122049500D01*
X120222756Y-122086025D01*
X120222748Y-122086027D01*
X120049771Y-122157676D01*
X120049757Y-122157684D01*
X119933046Y-122235668D01*
X119866369Y-122256546D01*
X119798989Y-122238061D01*
X119758617Y-122197662D01*
X119717712Y-122131344D01*
X119593657Y-122007289D01*
X119593656Y-122007288D01*
X119444334Y-121915186D01*
X119277797Y-121860001D01*
X119277795Y-121860000D01*
X119175010Y-121849500D01*
X117824998Y-121849500D01*
X117824981Y-121849501D01*
X117722203Y-121860000D01*
X117722200Y-121860001D01*
X117555668Y-121915185D01*
X117555663Y-121915187D01*
X117406342Y-122007289D01*
X117282289Y-122131342D01*
X117190187Y-122280663D01*
X117190185Y-122280668D01*
X117167377Y-122349500D01*
X117135001Y-122447203D01*
X117135001Y-122447204D01*
X117135000Y-122447204D01*
X117124500Y-122549983D01*
X115875498Y-122549983D01*
X115875498Y-122549980D01*
X115864999Y-122447203D01*
X115864998Y-122447200D01*
X115826100Y-122329815D01*
X115809814Y-122280666D01*
X115717712Y-122131344D01*
X115593656Y-122007288D01*
X115444334Y-121915186D01*
X115277797Y-121860001D01*
X115277795Y-121860000D01*
X115175010Y-121849500D01*
X113824998Y-121849500D01*
X113824981Y-121849501D01*
X113722203Y-121860000D01*
X113722200Y-121860001D01*
X113555668Y-121915185D01*
X113555663Y-121915187D01*
X113406342Y-122007289D01*
X113282289Y-122131342D01*
X113266046Y-122157676D01*
X113201886Y-122261698D01*
X113186395Y-122286813D01*
X113184600Y-122285706D01*
X113145313Y-122330337D01*
X113079092Y-122349500D01*
X110820808Y-122349500D01*
X110753769Y-122329815D01*
X110733127Y-122313181D01*
X108769932Y-120349986D01*
X113125001Y-120349986D01*
X113135494Y-120452697D01*
X113190641Y-120619119D01*
X113190643Y-120619124D01*
X113282684Y-120768345D01*
X113406654Y-120892315D01*
X113555875Y-120984356D01*
X113555880Y-120984358D01*
X113722302Y-121039505D01*
X113722309Y-121039506D01*
X113825019Y-121049999D01*
X114249999Y-121049999D01*
X114750000Y-121049999D01*
X115174972Y-121049999D01*
X115174986Y-121049998D01*
X115277697Y-121039505D01*
X115444119Y-120984358D01*
X115444124Y-120984356D01*
X115593345Y-120892315D01*
X115717315Y-120768345D01*
X115809356Y-120619124D01*
X115809358Y-120619119D01*
X115864505Y-120452697D01*
X115864506Y-120452690D01*
X115874999Y-120349986D01*
X115875000Y-120349973D01*
X115875000Y-120150000D01*
X114750000Y-120150000D01*
X114750000Y-121049999D01*
X114249999Y-121049999D01*
X114250000Y-121049998D01*
X114250000Y-120150000D01*
X113125001Y-120150000D01*
X113125001Y-120349986D01*
X108769932Y-120349986D01*
X108290838Y-119870892D01*
X108257353Y-119809569D01*
X108262337Y-119739877D01*
X108290838Y-119695530D01*
X108336368Y-119650000D01*
X108392712Y-119593656D01*
X108484814Y-119444334D01*
X108539999Y-119277797D01*
X108550500Y-119175009D01*
X108550499Y-117824992D01*
X108544033Y-117761698D01*
X108539999Y-117722203D01*
X108539998Y-117722200D01*
X108526548Y-117681610D01*
X108484814Y-117555666D01*
X108392712Y-117406344D01*
X108268656Y-117282288D01*
X108119334Y-117190186D01*
X107952797Y-117135001D01*
X107952795Y-117135000D01*
X107850010Y-117124500D01*
X106949998Y-117124500D01*
X106949980Y-117124501D01*
X106847203Y-117135000D01*
X106847200Y-117135001D01*
X106680668Y-117190185D01*
X106680663Y-117190187D01*
X106531342Y-117282289D01*
X106407289Y-117406342D01*
X106315187Y-117555663D01*
X106315186Y-117555665D01*
X106315186Y-117555666D01*
X106260001Y-117722203D01*
X106260001Y-117722204D01*
X106260000Y-117722204D01*
X106249500Y-117824983D01*
X106249500Y-119175001D01*
X106249501Y-119175018D01*
X106260000Y-119277796D01*
X106260001Y-119277799D01*
X106315185Y-119444331D01*
X106315187Y-119444336D01*
X106318989Y-119450500D01*
X106407288Y-119593656D01*
X106531344Y-119717712D01*
X106680666Y-119809814D01*
X106680667Y-119809814D01*
X106686813Y-119813605D01*
X106685987Y-119814943D01*
X106693530Y-119817236D01*
X106710577Y-119837292D01*
X106730337Y-119854687D01*
X106734047Y-119864906D01*
X106738780Y-119870474D01*
X106742606Y-119888475D01*
X106748400Y-119904431D01*
X106749500Y-119912636D01*
X106749500Y-119964069D01*
X106769887Y-120066558D01*
X106770647Y-120070383D01*
X106770648Y-120070384D01*
X106774499Y-120089744D01*
X106811381Y-120178786D01*
X106823535Y-120208127D01*
X106881915Y-120295500D01*
X106894726Y-120314673D01*
X110085328Y-123505275D01*
X110085331Y-123505277D01*
X110156451Y-123552797D01*
X110191873Y-123576465D01*
X110310256Y-123625501D01*
X110310260Y-123625501D01*
X110310261Y-123625502D01*
X110435928Y-123650500D01*
X110435931Y-123650500D01*
X113079092Y-123650500D01*
X113146131Y-123670185D01*
X113184636Y-123714271D01*
X113186395Y-123713187D01*
X113190185Y-123719331D01*
X113190186Y-123719334D01*
X113282288Y-123868656D01*
X113406344Y-123992712D01*
X113555666Y-124084814D01*
X113722203Y-124139999D01*
X113824991Y-124150500D01*
X115175008Y-124150499D01*
X115178165Y-124150499D01*
X115178165Y-124151892D01*
X115240756Y-124166840D01*
X115266822Y-124186768D01*
X115868373Y-124788319D01*
X115901858Y-124849642D01*
X115896874Y-124919334D01*
X115855002Y-124975267D01*
X115789538Y-124999684D01*
X115780692Y-125000000D01*
X108061732Y-125000000D01*
X107994693Y-124980315D01*
X107954346Y-124938001D01*
X107916948Y-124873226D01*
X107916947Y-124873224D01*
X107781248Y-124696377D01*
X107781242Y-124696370D01*
X107623629Y-124538757D01*
X107623622Y-124538751D01*
X107446782Y-124403058D01*
X107446780Y-124403057D01*
X107446774Y-124403052D01*
X107253726Y-124291595D01*
X107253722Y-124291593D01*
X107047790Y-124206293D01*
X107047783Y-124206291D01*
X107047781Y-124206290D01*
X106832463Y-124148596D01*
X106832457Y-124148595D01*
X106832452Y-124148594D01*
X106611466Y-124119501D01*
X106611463Y-124119500D01*
X106611457Y-124119500D01*
X106388543Y-124119500D01*
X106388537Y-124119500D01*
X106388533Y-124119501D01*
X106167547Y-124148594D01*
X106167540Y-124148595D01*
X106167537Y-124148596D01*
X105952219Y-124206290D01*
X105952209Y-124206293D01*
X105746277Y-124291593D01*
X105746273Y-124291595D01*
X105553226Y-124403052D01*
X105553217Y-124403058D01*
X105376377Y-124538751D01*
X105376370Y-124538757D01*
X105218757Y-124696370D01*
X105218751Y-124696377D01*
X105083052Y-124873224D01*
X105062426Y-124908949D01*
X105045653Y-124938000D01*
X104995089Y-124986215D01*
X104938268Y-125000000D01*
X101124500Y-125000000D01*
X101057461Y-124980315D01*
X101011706Y-124927511D01*
X101000500Y-124876000D01*
X101000500Y-115174986D01*
X106250001Y-115174986D01*
X106260494Y-115277697D01*
X106315641Y-115444119D01*
X106315643Y-115444124D01*
X106407684Y-115593345D01*
X106531654Y-115717315D01*
X106680875Y-115809356D01*
X106680880Y-115809358D01*
X106847302Y-115864505D01*
X106847309Y-115864506D01*
X106950019Y-115874999D01*
X107149999Y-115874999D01*
X107650000Y-115874999D01*
X107849972Y-115874999D01*
X107849986Y-115874998D01*
X107952697Y-115864505D01*
X108119119Y-115809358D01*
X108119124Y-115809356D01*
X108268345Y-115717315D01*
X108392315Y-115593345D01*
X108484356Y-115444124D01*
X108484358Y-115444119D01*
X108539505Y-115277697D01*
X108539506Y-115277690D01*
X108549999Y-115174986D01*
X108550000Y-115174973D01*
X108550000Y-114750000D01*
X107650000Y-114750000D01*
X107650000Y-115874999D01*
X107149999Y-115874999D01*
X107150000Y-115874998D01*
X107150000Y-114750000D01*
X106250001Y-114750000D01*
X106250001Y-115174986D01*
X101000500Y-115174986D01*
X101000500Y-113825013D01*
X106250000Y-113825013D01*
X106250000Y-114250000D01*
X107150000Y-114250000D01*
X107650000Y-114250000D01*
X108549999Y-114250000D01*
X108549999Y-113825028D01*
X108549998Y-113825013D01*
X108539505Y-113722302D01*
X108484358Y-113555880D01*
X108484356Y-113555875D01*
X108392315Y-113406654D01*
X108268345Y-113282684D01*
X108119124Y-113190643D01*
X108119119Y-113190641D01*
X107952697Y-113135494D01*
X107952690Y-113135493D01*
X107849986Y-113125000D01*
X107650000Y-113125000D01*
X107650000Y-114250000D01*
X107150000Y-114250000D01*
X107150000Y-113125000D01*
X106950029Y-113125000D01*
X106950012Y-113125001D01*
X106847302Y-113135494D01*
X106680880Y-113190641D01*
X106680875Y-113190643D01*
X106531654Y-113282684D01*
X106407684Y-113406654D01*
X106315643Y-113555875D01*
X106315641Y-113555880D01*
X106260494Y-113722302D01*
X106260493Y-113722309D01*
X106250000Y-113825013D01*
X101000500Y-113825013D01*
X101000500Y-110406379D01*
X104549500Y-110406379D01*
X104549500Y-110593620D01*
X104586025Y-110777243D01*
X104586027Y-110777251D01*
X104657676Y-110950228D01*
X104657681Y-110950237D01*
X104761697Y-111105907D01*
X104761700Y-111105911D01*
X104894088Y-111238299D01*
X104894092Y-111238302D01*
X105049762Y-111342318D01*
X105049768Y-111342321D01*
X105049769Y-111342322D01*
X105222749Y-111413973D01*
X105402050Y-111449638D01*
X105406379Y-111450499D01*
X105406383Y-111450500D01*
X105406384Y-111450500D01*
X105593617Y-111450500D01*
X105593618Y-111450499D01*
X105777251Y-111413973D01*
X105950231Y-111342322D01*
X106085974Y-111251621D01*
X106152647Y-111230745D01*
X106220027Y-111249229D01*
X106266718Y-111301208D01*
X106272567Y-111315720D01*
X106281383Y-111342323D01*
X106308866Y-111425263D01*
X106315186Y-111444333D01*
X106315187Y-111444336D01*
X106318989Y-111450500D01*
X106407288Y-111593656D01*
X106531344Y-111717712D01*
X106680666Y-111809814D01*
X106847203Y-111864999D01*
X106949991Y-111875500D01*
X107850008Y-111875499D01*
X107850016Y-111875498D01*
X107850019Y-111875498D01*
X107906302Y-111869748D01*
X107952797Y-111864999D01*
X108119334Y-111809814D01*
X108268656Y-111717712D01*
X108392712Y-111593656D01*
X108484814Y-111444334D01*
X108539999Y-111277797D01*
X108550500Y-111175009D01*
X108550499Y-109824992D01*
X108550498Y-109824983D01*
X109349500Y-109824983D01*
X109349500Y-111175001D01*
X109349501Y-111175018D01*
X109360000Y-111277796D01*
X109360001Y-111277799D01*
X109415185Y-111444331D01*
X109415187Y-111444336D01*
X109418989Y-111450500D01*
X109507288Y-111593656D01*
X109631344Y-111717712D01*
X109780666Y-111809814D01*
X109947203Y-111864999D01*
X110049991Y-111875500D01*
X110745192Y-111875499D01*
X110812231Y-111895183D01*
X110857986Y-111947987D01*
X110867930Y-112017146D01*
X110838905Y-112080702D01*
X110832873Y-112087180D01*
X109994725Y-112925328D01*
X109994723Y-112925331D01*
X109983110Y-112942712D01*
X109923535Y-113031873D01*
X109889366Y-113114361D01*
X109886089Y-113120330D01*
X109865949Y-113140371D01*
X109848122Y-113162493D01*
X109839277Y-113166912D01*
X109836563Y-113169614D01*
X109831841Y-113170628D01*
X109816409Y-113178341D01*
X109780668Y-113190184D01*
X109631342Y-113282289D01*
X109507289Y-113406342D01*
X109415187Y-113555663D01*
X109415185Y-113555668D01*
X109415115Y-113555880D01*
X109360001Y-113722203D01*
X109360001Y-113722204D01*
X109360000Y-113722204D01*
X109349500Y-113824983D01*
X109349500Y-115175001D01*
X109349501Y-115175018D01*
X109360000Y-115277796D01*
X109360001Y-115277799D01*
X109415185Y-115444331D01*
X109415187Y-115444336D01*
X109449521Y-115500001D01*
X109507288Y-115593656D01*
X109631344Y-115717712D01*
X109780666Y-115809814D01*
X109947203Y-115864999D01*
X110049991Y-115875500D01*
X110950008Y-115875499D01*
X110950016Y-115875498D01*
X110950019Y-115875498D01*
X111006302Y-115869748D01*
X111052797Y-115864999D01*
X111219334Y-115809814D01*
X111368656Y-115717712D01*
X111492712Y-115593656D01*
X111584814Y-115444334D01*
X111639999Y-115277797D01*
X111650500Y-115175009D01*
X111650499Y-113824992D01*
X111642838Y-113750000D01*
X111639999Y-113722203D01*
X111639998Y-113722200D01*
X111625988Y-113679920D01*
X111584814Y-113555666D01*
X111584810Y-113555659D01*
X111491113Y-113403751D01*
X111472673Y-113336359D01*
X111493596Y-113269695D01*
X111508966Y-113250979D01*
X112119026Y-112640919D01*
X112180347Y-112607436D01*
X112250039Y-112612420D01*
X112305972Y-112654292D01*
X112307006Y-112655692D01*
X112346821Y-112710494D01*
X112388034Y-112767219D01*
X112532786Y-112911971D01*
X112687749Y-113024556D01*
X112698390Y-113032287D01*
X112789840Y-113078883D01*
X112791080Y-113079515D01*
X112841876Y-113127490D01*
X112858671Y-113195311D01*
X112836134Y-113261446D01*
X112791080Y-113300485D01*
X112698388Y-113347714D01*
X112532786Y-113468028D01*
X112388028Y-113612786D01*
X112267715Y-113778386D01*
X112174781Y-113960776D01*
X112111522Y-114155465D01*
X112079500Y-114357648D01*
X112079500Y-114562351D01*
X112111522Y-114764534D01*
X112174781Y-114959223D01*
X112221153Y-115050231D01*
X112264364Y-115135038D01*
X112267715Y-115141613D01*
X112323940Y-115219001D01*
X112347420Y-115284807D01*
X112331594Y-115352861D01*
X112311303Y-115379567D01*
X110602689Y-117088181D01*
X110541366Y-117121666D01*
X110515008Y-117124500D01*
X110049998Y-117124500D01*
X110049980Y-117124501D01*
X109947203Y-117135000D01*
X109947200Y-117135001D01*
X109780668Y-117190185D01*
X109780663Y-117190187D01*
X109631342Y-117282289D01*
X109507289Y-117406342D01*
X109415187Y-117555663D01*
X109415186Y-117555665D01*
X109415186Y-117555666D01*
X109360001Y-117722203D01*
X109360001Y-117722204D01*
X109360000Y-117722204D01*
X109349500Y-117824983D01*
X109349500Y-119175001D01*
X109349501Y-119175018D01*
X109360000Y-119277796D01*
X109360001Y-119277799D01*
X109415185Y-119444331D01*
X109415187Y-119444336D01*
X109418989Y-119450500D01*
X109507288Y-119593656D01*
X109631344Y-119717712D01*
X109780666Y-119809814D01*
X109947203Y-119864999D01*
X110049991Y-119875500D01*
X110950008Y-119875499D01*
X110950016Y-119875498D01*
X110950019Y-119875498D01*
X111006302Y-119869748D01*
X111052797Y-119864999D01*
X111219334Y-119809814D01*
X111368656Y-119717712D01*
X111492712Y-119593656D01*
X111581311Y-119450013D01*
X113125000Y-119450013D01*
X113125000Y-119650000D01*
X114250000Y-119650000D01*
X114750000Y-119650000D01*
X115874999Y-119650000D01*
X115874999Y-119450024D01*
X115874998Y-119450016D01*
X115874995Y-119449983D01*
X117124500Y-119449983D01*
X117124500Y-120350001D01*
X117124501Y-120350019D01*
X117135000Y-120452796D01*
X117135001Y-120452797D01*
X117190186Y-120619334D01*
X117282288Y-120768656D01*
X117406344Y-120892712D01*
X117555666Y-120984814D01*
X117722203Y-121039999D01*
X117824991Y-121050500D01*
X119175008Y-121050499D01*
X119277797Y-121039999D01*
X119444334Y-120984814D01*
X119593656Y-120892712D01*
X119717712Y-120768656D01*
X119809814Y-120619334D01*
X119864999Y-120452797D01*
X119875500Y-120350009D01*
X119875499Y-119449992D01*
X119875498Y-119449983D01*
X121124500Y-119449983D01*
X121124500Y-120350001D01*
X121124501Y-120350019D01*
X121135000Y-120452796D01*
X121135001Y-120452797D01*
X121190186Y-120619334D01*
X121282288Y-120768656D01*
X121406344Y-120892712D01*
X121555666Y-120984814D01*
X121722203Y-121039999D01*
X121824991Y-121050500D01*
X123175008Y-121050499D01*
X123277797Y-121039999D01*
X123444334Y-120984814D01*
X123593656Y-120892712D01*
X123717712Y-120768656D01*
X123809814Y-120619334D01*
X123809815Y-120619331D01*
X123813605Y-120613187D01*
X123815399Y-120614293D01*
X123854687Y-120569663D01*
X123920908Y-120550500D01*
X124164071Y-120550500D01*
X124248615Y-120533682D01*
X124289744Y-120525501D01*
X124351342Y-120499986D01*
X134125001Y-120499986D01*
X134135494Y-120602697D01*
X134190641Y-120769119D01*
X134190643Y-120769124D01*
X134282684Y-120918345D01*
X134406654Y-121042315D01*
X134555875Y-121134356D01*
X134555880Y-121134358D01*
X134722302Y-121189505D01*
X134722309Y-121189506D01*
X134825019Y-121199999D01*
X135249999Y-121199999D01*
X135750000Y-121199999D01*
X136174972Y-121199999D01*
X136174986Y-121199998D01*
X136277697Y-121189505D01*
X136444119Y-121134358D01*
X136444124Y-121134356D01*
X136593345Y-121042315D01*
X136717315Y-120918345D01*
X136809356Y-120769124D01*
X136809358Y-120769119D01*
X136864505Y-120602697D01*
X136864506Y-120602690D01*
X136874999Y-120499986D01*
X136875000Y-120499973D01*
X136875000Y-120300000D01*
X135750000Y-120300000D01*
X135750000Y-121199999D01*
X135249999Y-121199999D01*
X135250000Y-121199998D01*
X135250000Y-120300000D01*
X134125001Y-120300000D01*
X134125001Y-120499986D01*
X124351342Y-120499986D01*
X124408127Y-120476465D01*
X124443549Y-120452797D01*
X124514669Y-120405277D01*
X125433127Y-119486819D01*
X125494450Y-119453334D01*
X125520808Y-119450500D01*
X125593617Y-119450500D01*
X125593618Y-119450499D01*
X125777251Y-119413973D01*
X125950231Y-119342322D01*
X126105908Y-119238302D01*
X126238302Y-119105908D01*
X126342322Y-118950231D01*
X126413973Y-118777251D01*
X126450500Y-118593616D01*
X126450500Y-118406384D01*
X126413973Y-118222749D01*
X126342322Y-118049769D01*
X126342321Y-118049768D01*
X126342318Y-118049762D01*
X126238302Y-117894092D01*
X126238299Y-117894088D01*
X126105911Y-117761700D01*
X126105907Y-117761697D01*
X125950237Y-117657681D01*
X125950228Y-117657676D01*
X125777251Y-117586027D01*
X125777243Y-117586025D01*
X125593620Y-117549500D01*
X125593616Y-117549500D01*
X125406384Y-117549500D01*
X125406379Y-117549500D01*
X125222756Y-117586025D01*
X125222748Y-117586027D01*
X125049771Y-117657676D01*
X125049762Y-117657681D01*
X124894092Y-117761697D01*
X124894088Y-117761700D01*
X124761700Y-117894088D01*
X124761697Y-117894092D01*
X124657681Y-118049762D01*
X124657676Y-118049771D01*
X124586027Y-118222748D01*
X124586025Y-118222756D01*
X124549500Y-118406379D01*
X124549500Y-118479191D01*
X124529815Y-118546230D01*
X124513181Y-118566872D01*
X123954877Y-119125175D01*
X123893554Y-119158660D01*
X123823862Y-119153676D01*
X123767929Y-119111804D01*
X123761657Y-119102591D01*
X123717712Y-119031344D01*
X123593656Y-118907288D01*
X123444334Y-118815186D01*
X123277797Y-118760001D01*
X123277795Y-118760000D01*
X123175010Y-118749500D01*
X121824998Y-118749500D01*
X121824981Y-118749501D01*
X121722203Y-118760000D01*
X121722200Y-118760001D01*
X121555668Y-118815185D01*
X121555663Y-118815187D01*
X121406342Y-118907289D01*
X121282289Y-119031342D01*
X121190187Y-119180663D01*
X121190185Y-119180668D01*
X121171088Y-119238299D01*
X121135001Y-119347203D01*
X121135001Y-119347204D01*
X121135000Y-119347204D01*
X121124500Y-119449983D01*
X119875498Y-119449983D01*
X119864999Y-119347203D01*
X119809814Y-119180666D01*
X119717712Y-119031344D01*
X119593656Y-118907288D01*
X119483898Y-118839589D01*
X119437174Y-118787641D01*
X119425951Y-118718678D01*
X119427378Y-118709858D01*
X119429306Y-118700167D01*
X119450500Y-118593616D01*
X119450500Y-118406384D01*
X119413973Y-118222749D01*
X119342322Y-118049769D01*
X119342321Y-118049768D01*
X119342318Y-118049762D01*
X119238302Y-117894092D01*
X119238299Y-117894088D01*
X119105911Y-117761700D01*
X119105907Y-117761697D01*
X118950237Y-117657681D01*
X118950228Y-117657676D01*
X118777251Y-117586027D01*
X118777243Y-117586025D01*
X118593620Y-117549500D01*
X118593616Y-117549500D01*
X118406384Y-117549500D01*
X118406379Y-117549500D01*
X118222756Y-117586025D01*
X118222748Y-117586027D01*
X118049771Y-117657676D01*
X118049762Y-117657681D01*
X117894092Y-117761697D01*
X117894088Y-117761700D01*
X117761700Y-117894088D01*
X117761697Y-117894092D01*
X117657681Y-118049762D01*
X117657676Y-118049771D01*
X117586027Y-118222748D01*
X117586025Y-118222756D01*
X117549500Y-118406379D01*
X117549500Y-118406383D01*
X117549500Y-118406384D01*
X117549500Y-118593616D01*
X117549501Y-118593620D01*
X117572622Y-118709859D01*
X117566394Y-118779451D01*
X117523530Y-118834628D01*
X117516101Y-118839588D01*
X117406347Y-118907285D01*
X117406343Y-118907288D01*
X117282289Y-119031342D01*
X117190187Y-119180663D01*
X117190185Y-119180668D01*
X117171088Y-119238299D01*
X117135001Y-119347203D01*
X117135001Y-119347204D01*
X117135000Y-119347204D01*
X117124500Y-119449983D01*
X115874995Y-119449983D01*
X115864505Y-119347302D01*
X115809358Y-119180880D01*
X115809356Y-119180875D01*
X115717315Y-119031654D01*
X115593345Y-118907684D01*
X115444124Y-118815643D01*
X115444119Y-118815641D01*
X115277697Y-118760494D01*
X115277690Y-118760493D01*
X115174986Y-118750000D01*
X114750000Y-118750000D01*
X114750000Y-119650000D01*
X114250000Y-119650000D01*
X114250000Y-118750000D01*
X113825028Y-118750000D01*
X113825012Y-118750001D01*
X113722302Y-118760494D01*
X113555880Y-118815641D01*
X113555875Y-118815643D01*
X113406654Y-118907684D01*
X113282684Y-119031654D01*
X113190643Y-119180875D01*
X113190641Y-119180880D01*
X113135494Y-119347302D01*
X113135493Y-119347309D01*
X113125000Y-119450013D01*
X111581311Y-119450013D01*
X111584814Y-119444334D01*
X111639999Y-119277797D01*
X111650500Y-119175009D01*
X111650499Y-117931624D01*
X111670184Y-117864586D01*
X111686813Y-117843949D01*
X112005751Y-117525011D01*
X112067072Y-117491528D01*
X112136764Y-117496512D01*
X112192697Y-117538384D01*
X112203913Y-117556396D01*
X112239124Y-117625501D01*
X112267715Y-117681614D01*
X112388028Y-117847213D01*
X112532786Y-117991971D01*
X112667713Y-118089999D01*
X112698390Y-118112287D01*
X112814607Y-118171503D01*
X112880776Y-118205218D01*
X112880778Y-118205218D01*
X112880781Y-118205220D01*
X112985137Y-118239127D01*
X113075465Y-118268477D01*
X113176557Y-118284488D01*
X113277648Y-118300500D01*
X113277649Y-118300500D01*
X113482351Y-118300500D01*
X113482352Y-118300500D01*
X113684534Y-118268477D01*
X113879219Y-118205220D01*
X114061610Y-118112287D01*
X114168246Y-118034812D01*
X114227213Y-117991971D01*
X114227215Y-117991968D01*
X114227219Y-117991966D01*
X114371966Y-117847219D01*
X114477753Y-117701613D01*
X114533082Y-117658949D01*
X114578071Y-117650500D01*
X115564071Y-117650500D01*
X115648615Y-117633682D01*
X115689744Y-117625501D01*
X115808127Y-117576465D01*
X115839254Y-117555667D01*
X115839255Y-117555667D01*
X115913799Y-117505858D01*
X115914669Y-117505277D01*
X117220626Y-116199317D01*
X117281949Y-116165833D01*
X117308307Y-116162999D01*
X117691690Y-116162999D01*
X117758729Y-116182684D01*
X117779371Y-116199318D01*
X117796326Y-116216273D01*
X117796329Y-116216275D01*
X117796331Y-116216277D01*
X117902873Y-116287465D01*
X118021256Y-116336501D01*
X118021260Y-116336501D01*
X118021261Y-116336502D01*
X118146928Y-116361500D01*
X118146931Y-116361500D01*
X119669364Y-116361500D01*
X119736403Y-116381185D01*
X119782158Y-116433989D01*
X119792102Y-116503147D01*
X119787296Y-116523813D01*
X119771991Y-116570916D01*
X119731522Y-116695465D01*
X119699500Y-116897648D01*
X119699500Y-117102351D01*
X119731522Y-117304534D01*
X119794781Y-117499223D01*
X119887715Y-117681613D01*
X120008028Y-117847213D01*
X120152786Y-117991971D01*
X120287713Y-118089999D01*
X120318390Y-118112287D01*
X120434607Y-118171503D01*
X120500776Y-118205218D01*
X120500778Y-118205218D01*
X120500781Y-118205220D01*
X120605137Y-118239127D01*
X120695465Y-118268477D01*
X120796557Y-118284488D01*
X120897648Y-118300500D01*
X120897649Y-118300500D01*
X121102351Y-118300500D01*
X121102352Y-118300500D01*
X121304534Y-118268477D01*
X121499219Y-118205220D01*
X121681610Y-118112287D01*
X121788246Y-118034812D01*
X121847213Y-117991971D01*
X121847215Y-117991968D01*
X121847219Y-117991966D01*
X121991966Y-117847219D01*
X121991968Y-117847215D01*
X121991971Y-117847213D01*
X122082794Y-117722204D01*
X122112287Y-117681610D01*
X122205220Y-117499219D01*
X122268477Y-117304534D01*
X122300500Y-117102352D01*
X122300500Y-116897648D01*
X122268477Y-116695466D01*
X122212704Y-116523817D01*
X122210710Y-116453977D01*
X122246790Y-116394144D01*
X122309491Y-116363316D01*
X122330636Y-116361500D01*
X124159941Y-116361500D01*
X124226980Y-116381185D01*
X124272735Y-116433989D01*
X124277872Y-116447181D01*
X124294781Y-116499223D01*
X124387715Y-116681613D01*
X124508028Y-116847213D01*
X124652786Y-116991971D01*
X124807749Y-117104556D01*
X124818390Y-117112287D01*
X124934607Y-117171503D01*
X125000776Y-117205218D01*
X125000778Y-117205218D01*
X125000781Y-117205220D01*
X125105137Y-117239127D01*
X125195465Y-117268477D01*
X125282664Y-117282288D01*
X125397648Y-117300500D01*
X125397649Y-117300500D01*
X125602351Y-117300500D01*
X125602352Y-117300500D01*
X125804534Y-117268477D01*
X125999219Y-117205220D01*
X126181610Y-117112287D01*
X126274590Y-117044732D01*
X126347213Y-116991971D01*
X126347215Y-116991968D01*
X126347219Y-116991966D01*
X126491966Y-116847219D01*
X126491968Y-116847215D01*
X126491971Y-116847213D01*
X126571100Y-116738299D01*
X126612287Y-116681610D01*
X126705220Y-116499219D01*
X126768477Y-116304534D01*
X126791823Y-116157135D01*
X130249500Y-116157135D01*
X130249500Y-117302870D01*
X130249501Y-117302876D01*
X130255908Y-117362483D01*
X130306202Y-117497328D01*
X130306203Y-117497330D01*
X130306204Y-117497331D01*
X130307028Y-117498432D01*
X130307509Y-117499721D01*
X130310454Y-117505114D01*
X130309678Y-117505537D01*
X130331448Y-117563895D01*
X130322325Y-117620198D01*
X130288910Y-117700868D01*
X130288907Y-117700880D01*
X130249500Y-117898992D01*
X130249500Y-118101007D01*
X130288907Y-118299119D01*
X130288909Y-118299127D01*
X130366213Y-118485755D01*
X130419904Y-118566109D01*
X130440782Y-118632787D01*
X130422297Y-118700167D01*
X130419904Y-118703891D01*
X130366213Y-118784244D01*
X130288909Y-118970872D01*
X130288907Y-118970880D01*
X130249500Y-119168992D01*
X130249500Y-119371007D01*
X130288907Y-119569119D01*
X130288909Y-119569127D01*
X130366212Y-119755752D01*
X130366217Y-119755762D01*
X130478441Y-119923718D01*
X130621281Y-120066558D01*
X130789237Y-120178782D01*
X130789241Y-120178784D01*
X130789244Y-120178786D01*
X130975873Y-120256091D01*
X131173992Y-120295499D01*
X131173996Y-120295500D01*
X131173997Y-120295500D01*
X131826004Y-120295500D01*
X131826005Y-120295499D01*
X132024127Y-120256091D01*
X132210756Y-120178786D01*
X132253838Y-120150000D01*
X132260519Y-120145536D01*
X132260520Y-120145535D01*
X132378716Y-120066560D01*
X132521558Y-119923718D01*
X132633782Y-119755762D01*
X132633782Y-119755761D01*
X132633786Y-119755756D01*
X132698297Y-119600013D01*
X134125000Y-119600013D01*
X134125000Y-119800000D01*
X135250000Y-119800000D01*
X135750000Y-119800000D01*
X136874999Y-119800000D01*
X136874999Y-119600028D01*
X136874998Y-119600013D01*
X136864505Y-119497302D01*
X136809358Y-119330880D01*
X136809356Y-119330875D01*
X136717315Y-119181654D01*
X136593345Y-119057684D01*
X136444124Y-118965643D01*
X136444119Y-118965641D01*
X136277697Y-118910494D01*
X136277690Y-118910493D01*
X136174986Y-118900000D01*
X135750000Y-118900000D01*
X135750000Y-119800000D01*
X135250000Y-119800000D01*
X135250000Y-118900000D01*
X134825028Y-118900000D01*
X134825012Y-118900001D01*
X134722302Y-118910494D01*
X134555880Y-118965641D01*
X134555875Y-118965643D01*
X134406654Y-119057684D01*
X134282684Y-119181654D01*
X134190643Y-119330875D01*
X134190641Y-119330880D01*
X134135494Y-119497302D01*
X134135493Y-119497309D01*
X134125000Y-119600013D01*
X132698297Y-119600013D01*
X132711091Y-119569127D01*
X132750500Y-119371003D01*
X132750500Y-119168997D01*
X132711091Y-118970873D01*
X132633786Y-118784244D01*
X132580094Y-118703889D01*
X132559217Y-118637214D01*
X132577701Y-118569834D01*
X132580078Y-118566134D01*
X132633786Y-118485756D01*
X132711091Y-118299127D01*
X132750500Y-118101003D01*
X132750500Y-117898997D01*
X132711091Y-117700873D01*
X132677673Y-117620198D01*
X132670205Y-117550730D01*
X132689964Y-117505340D01*
X132689547Y-117505112D01*
X132692095Y-117500444D01*
X132692972Y-117498431D01*
X132693796Y-117497331D01*
X132744091Y-117362483D01*
X132750500Y-117302873D01*
X132750499Y-116157128D01*
X132744091Y-116097517D01*
X132742636Y-116093617D01*
X132693797Y-115962671D01*
X132693793Y-115962664D01*
X132607547Y-115847455D01*
X132607544Y-115847452D01*
X132492335Y-115761206D01*
X132492328Y-115761202D01*
X132357482Y-115710908D01*
X132357483Y-115710908D01*
X132297883Y-115704501D01*
X132297881Y-115704500D01*
X132297873Y-115704500D01*
X132297864Y-115704500D01*
X130702129Y-115704500D01*
X130702123Y-115704501D01*
X130642516Y-115710908D01*
X130507671Y-115761202D01*
X130507664Y-115761206D01*
X130392455Y-115847452D01*
X130392452Y-115847455D01*
X130306206Y-115962664D01*
X130306202Y-115962671D01*
X130255908Y-116097517D01*
X130249967Y-116152780D01*
X130249501Y-116157123D01*
X130249500Y-116157135D01*
X126791823Y-116157135D01*
X126800500Y-116102352D01*
X126800500Y-115897648D01*
X126778643Y-115759653D01*
X126768477Y-115695465D01*
X126705218Y-115500776D01*
X126612286Y-115318389D01*
X126560911Y-115247676D01*
X126537432Y-115181872D01*
X126553257Y-115113819D01*
X126573549Y-115087112D01*
X126642315Y-115018345D01*
X126734356Y-114869124D01*
X126734358Y-114869119D01*
X126789505Y-114702697D01*
X126789506Y-114702690D01*
X126799999Y-114599986D01*
X126800000Y-114599973D01*
X126800000Y-114250000D01*
X125815686Y-114250000D01*
X125820080Y-114245606D01*
X125872741Y-114154394D01*
X125900000Y-114052661D01*
X125900000Y-113947339D01*
X125872741Y-113845606D01*
X125820080Y-113754394D01*
X125815686Y-113750000D01*
X126799999Y-113750000D01*
X126799999Y-113400028D01*
X126799998Y-113400013D01*
X126789505Y-113297302D01*
X126734358Y-113130880D01*
X126734356Y-113130875D01*
X126642315Y-112981654D01*
X126518345Y-112857684D01*
X126369124Y-112765643D01*
X126369119Y-112765641D01*
X126202697Y-112710494D01*
X126202690Y-112710493D01*
X126099986Y-112700000D01*
X125750000Y-112700000D01*
X125750000Y-113684314D01*
X125745606Y-113679920D01*
X125654394Y-113627259D01*
X125552661Y-113600000D01*
X125447339Y-113600000D01*
X125345606Y-113627259D01*
X125254394Y-113679920D01*
X125250000Y-113684314D01*
X125250000Y-112700000D01*
X124900028Y-112700000D01*
X124900012Y-112700001D01*
X124797302Y-112710494D01*
X124630880Y-112765641D01*
X124630875Y-112765643D01*
X124481654Y-112857684D01*
X124357684Y-112981654D01*
X124265643Y-113130875D01*
X124265641Y-113130880D01*
X124210494Y-113297302D01*
X124210493Y-113297309D01*
X124200000Y-113400013D01*
X124200000Y-113750000D01*
X125184314Y-113750000D01*
X125179920Y-113754394D01*
X125127259Y-113845606D01*
X125100000Y-113947339D01*
X125100000Y-114052661D01*
X125127259Y-114154394D01*
X125179920Y-114245606D01*
X125184314Y-114250000D01*
X124200001Y-114250000D01*
X124200001Y-114599986D01*
X124210494Y-114702697D01*
X124265641Y-114869119D01*
X124265646Y-114869129D01*
X124267051Y-114871407D01*
X124267537Y-114873185D01*
X124268696Y-114875670D01*
X124268271Y-114875867D01*
X124285489Y-114938800D01*
X124264564Y-115005463D01*
X124210920Y-115050231D01*
X124161510Y-115060500D01*
X122342984Y-115060500D01*
X122275945Y-115040815D01*
X122230190Y-114988011D01*
X122220246Y-114918853D01*
X122225053Y-114898182D01*
X122268476Y-114764538D01*
X122268476Y-114764537D01*
X122268477Y-114764534D01*
X122300500Y-114562352D01*
X122300500Y-114357648D01*
X122272576Y-114181344D01*
X122268477Y-114155465D01*
X122224299Y-114019501D01*
X122205220Y-113960781D01*
X122205218Y-113960778D01*
X122205218Y-113960776D01*
X122160490Y-113872994D01*
X122112287Y-113778390D01*
X122091661Y-113750000D01*
X121991971Y-113612786D01*
X121847213Y-113468028D01*
X121681612Y-113347714D01*
X121660170Y-113336789D01*
X121588917Y-113300483D01*
X121538123Y-113252511D01*
X121521328Y-113184690D01*
X121543865Y-113118555D01*
X121588917Y-113079516D01*
X121681610Y-113032287D01*
X121764787Y-112971856D01*
X121847213Y-112911971D01*
X121847215Y-112911968D01*
X121847219Y-112911966D01*
X121991966Y-112767219D01*
X121991968Y-112767215D01*
X121991971Y-112767213D01*
X122062877Y-112669617D01*
X122112287Y-112601610D01*
X122205220Y-112419219D01*
X122268477Y-112224534D01*
X122300500Y-112022352D01*
X122300500Y-111817648D01*
X122286711Y-111730591D01*
X122268477Y-111615465D01*
X122226417Y-111486019D01*
X122205220Y-111420781D01*
X122205218Y-111420778D01*
X122205218Y-111420776D01*
X122171503Y-111354607D01*
X122112287Y-111238390D01*
X122103974Y-111226948D01*
X121991971Y-111072786D01*
X121847213Y-110928028D01*
X121681611Y-110807713D01*
X121588369Y-110760203D01*
X121537574Y-110712229D01*
X121520779Y-110644407D01*
X121543317Y-110578273D01*
X121588371Y-110539234D01*
X121681346Y-110491861D01*
X121681347Y-110491861D01*
X121725921Y-110459474D01*
X121046447Y-109780000D01*
X121052661Y-109780000D01*
X121154394Y-109752741D01*
X121245606Y-109700080D01*
X121320080Y-109625606D01*
X121372741Y-109534394D01*
X121400000Y-109432661D01*
X121400000Y-109426447D01*
X122079474Y-110105921D01*
X122111859Y-110061349D01*
X122204755Y-109879031D01*
X122262931Y-109699986D01*
X123337501Y-109699986D01*
X123347994Y-109802697D01*
X123403141Y-109969119D01*
X123403143Y-109969124D01*
X123495184Y-110118345D01*
X123619154Y-110242315D01*
X123768375Y-110334356D01*
X123768380Y-110334358D01*
X123934802Y-110389505D01*
X123934809Y-110389506D01*
X124037519Y-110399999D01*
X124249999Y-110399999D01*
X124750000Y-110399999D01*
X124962472Y-110399999D01*
X124962486Y-110399998D01*
X125065197Y-110389505D01*
X125231619Y-110334358D01*
X125231624Y-110334356D01*
X125380845Y-110242315D01*
X125504815Y-110118345D01*
X125596856Y-109969124D01*
X125596858Y-109969119D01*
X125652005Y-109802697D01*
X125652006Y-109802690D01*
X125662499Y-109699986D01*
X125662500Y-109699973D01*
X125662500Y-109250000D01*
X124750000Y-109250000D01*
X124750000Y-110399999D01*
X124249999Y-110399999D01*
X124250000Y-110399998D01*
X124250000Y-109250000D01*
X123337501Y-109250000D01*
X123337501Y-109699986D01*
X122262931Y-109699986D01*
X122267990Y-109684417D01*
X122300000Y-109482317D01*
X122300000Y-109277682D01*
X122290553Y-109218036D01*
X122267990Y-109075582D01*
X122204755Y-108880968D01*
X122111859Y-108698650D01*
X122079474Y-108654077D01*
X122079474Y-108654076D01*
X121400000Y-109333551D01*
X121400000Y-109327339D01*
X121372741Y-109225606D01*
X121320080Y-109134394D01*
X121245606Y-109059920D01*
X121154394Y-109007259D01*
X121052661Y-108980000D01*
X121046446Y-108980000D01*
X121725922Y-108300524D01*
X121725922Y-108300523D01*
X121725220Y-108300013D01*
X123337500Y-108300013D01*
X123337500Y-108750000D01*
X124250000Y-108750000D01*
X124750000Y-108750000D01*
X125662499Y-108750000D01*
X125662499Y-108300024D01*
X125662498Y-108300016D01*
X125662495Y-108299983D01*
X126462000Y-108299983D01*
X126462000Y-109700001D01*
X126462001Y-109700018D01*
X126472500Y-109802796D01*
X126472501Y-109802799D01*
X126497762Y-109879031D01*
X126527686Y-109969334D01*
X126619788Y-110118656D01*
X126743844Y-110242712D01*
X126893166Y-110334814D01*
X127059703Y-110389999D01*
X127162491Y-110400500D01*
X128054191Y-110400499D01*
X128121230Y-110420183D01*
X128141872Y-110436818D01*
X130210325Y-112505272D01*
X130210328Y-112505275D01*
X130210331Y-112505277D01*
X130289386Y-112558099D01*
X130316873Y-112576465D01*
X130435256Y-112625501D01*
X130473170Y-112633042D01*
X130494229Y-112637232D01*
X130556140Y-112669617D01*
X130590714Y-112730332D01*
X130586975Y-112800102D01*
X130580523Y-112815143D01*
X130573791Y-112828354D01*
X130573787Y-112828363D01*
X130517829Y-113000589D01*
X130489500Y-113179448D01*
X130489500Y-113360551D01*
X130517829Y-113539410D01*
X130573787Y-113711636D01*
X130573788Y-113711639D01*
X130629664Y-113821300D01*
X130641111Y-113843766D01*
X130656006Y-113872997D01*
X130762441Y-114019494D01*
X130762445Y-114019499D01*
X130890500Y-114147554D01*
X130890505Y-114147558D01*
X131018287Y-114240396D01*
X131037006Y-114253996D01*
X131142484Y-114307740D01*
X131198360Y-114336211D01*
X131198363Y-114336212D01*
X131264338Y-114357648D01*
X131370591Y-114392171D01*
X131453429Y-114405291D01*
X131549449Y-114420500D01*
X131549454Y-114420500D01*
X131730551Y-114420500D01*
X131817259Y-114406765D01*
X131909409Y-114392171D01*
X132081639Y-114336211D01*
X132242994Y-114253996D01*
X132389501Y-114147553D01*
X132517553Y-114019501D01*
X132520316Y-114015697D01*
X132552345Y-113971615D01*
X132607674Y-113928949D01*
X132652663Y-113920500D01*
X134243770Y-113920500D01*
X134310809Y-113940185D01*
X134356564Y-113992989D01*
X134366508Y-114062147D01*
X134337483Y-114125703D01*
X134331451Y-114132181D01*
X134282289Y-114181342D01*
X134190187Y-114330663D01*
X134190185Y-114330668D01*
X134169805Y-114392171D01*
X134135001Y-114497203D01*
X134135001Y-114497204D01*
X134135000Y-114497204D01*
X134124500Y-114599983D01*
X134124500Y-115500001D01*
X134124501Y-115500019D01*
X134135000Y-115602796D01*
X134135001Y-115602799D01*
X134175392Y-115724688D01*
X134190186Y-115769334D01*
X134269330Y-115897648D01*
X134282289Y-115918657D01*
X134285795Y-115923091D01*
X134311934Y-115987887D01*
X134298892Y-116056529D01*
X134285795Y-116076909D01*
X134282289Y-116081342D01*
X134190187Y-116230663D01*
X134190185Y-116230668D01*
X134162843Y-116313181D01*
X134135001Y-116397203D01*
X134135001Y-116397204D01*
X134135000Y-116397204D01*
X134124500Y-116499983D01*
X134124500Y-117400001D01*
X134124501Y-117400019D01*
X134135000Y-117502796D01*
X134135001Y-117502799D01*
X134173904Y-117620198D01*
X134190186Y-117669334D01*
X134282288Y-117818656D01*
X134406344Y-117942712D01*
X134555666Y-118034814D01*
X134722203Y-118089999D01*
X134824991Y-118100500D01*
X136175008Y-118100499D01*
X136277797Y-118089999D01*
X136444334Y-118034814D01*
X136593656Y-117942712D01*
X136717712Y-117818656D01*
X136809814Y-117669334D01*
X136843480Y-117567732D01*
X136883252Y-117510289D01*
X136892296Y-117503635D01*
X136940327Y-117471541D01*
X136964669Y-117455277D01*
X137433127Y-116986819D01*
X137494450Y-116953334D01*
X137520808Y-116950500D01*
X137593617Y-116950500D01*
X137593618Y-116950499D01*
X137777251Y-116913973D01*
X137950231Y-116842322D01*
X138105908Y-116738302D01*
X138238302Y-116605908D01*
X138342322Y-116450231D01*
X138413973Y-116277251D01*
X138450500Y-116093616D01*
X138450500Y-115906384D01*
X138413973Y-115722749D01*
X138342322Y-115549769D01*
X138342321Y-115549768D01*
X138342318Y-115549762D01*
X138238302Y-115394092D01*
X138238299Y-115394088D01*
X138105911Y-115261700D01*
X138105907Y-115261697D01*
X137950237Y-115157681D01*
X137950228Y-115157676D01*
X137777251Y-115086027D01*
X137777243Y-115086025D01*
X137593620Y-115049500D01*
X137593616Y-115049500D01*
X137406384Y-115049500D01*
X137406379Y-115049500D01*
X137222756Y-115086025D01*
X137222744Y-115086028D01*
X137046951Y-115158844D01*
X136977482Y-115166313D01*
X136915003Y-115135038D01*
X136879351Y-115074949D01*
X136875499Y-115044283D01*
X136875499Y-114599998D01*
X136875498Y-114599981D01*
X136864999Y-114497203D01*
X136864998Y-114497200D01*
X136844289Y-114434704D01*
X136809814Y-114330666D01*
X136717712Y-114181344D01*
X136593656Y-114057288D01*
X136444334Y-113965186D01*
X136277797Y-113910001D01*
X136277795Y-113910000D01*
X136175010Y-113899500D01*
X134824998Y-113899500D01*
X134824978Y-113899502D01*
X134776848Y-113904418D01*
X134708155Y-113891647D01*
X134657272Y-113843766D01*
X134640352Y-113775976D01*
X134662769Y-113709800D01*
X134676567Y-113693379D01*
X135233127Y-113136818D01*
X135294450Y-113103333D01*
X135320808Y-113100499D01*
X136175002Y-113100499D01*
X136175008Y-113100499D01*
X136277797Y-113089999D01*
X136444334Y-113034814D01*
X136593656Y-112942712D01*
X136717712Y-112818656D01*
X136809814Y-112669334D01*
X136864999Y-112502797D01*
X136875500Y-112400009D01*
X136875499Y-111499992D01*
X136872786Y-111473437D01*
X136864999Y-111397203D01*
X136864998Y-111397200D01*
X136864933Y-111397004D01*
X136809814Y-111230666D01*
X136717712Y-111081344D01*
X136593656Y-110957288D01*
X136444334Y-110865186D01*
X136277797Y-110810001D01*
X136277795Y-110810000D01*
X136175016Y-110799500D01*
X136175009Y-110799500D01*
X135107754Y-110799500D01*
X135040715Y-110779815D01*
X134994960Y-110727011D01*
X134985016Y-110657853D01*
X135004652Y-110606609D01*
X135042318Y-110550237D01*
X135042318Y-110550236D01*
X135042322Y-110550231D01*
X135113973Y-110377251D01*
X135150500Y-110193616D01*
X135150500Y-110006384D01*
X135113973Y-109822749D01*
X135042322Y-109649769D01*
X135042321Y-109649768D01*
X135042318Y-109649762D01*
X134938302Y-109494092D01*
X134938299Y-109494088D01*
X134805911Y-109361700D01*
X134805907Y-109361697D01*
X134650237Y-109257681D01*
X134650228Y-109257676D01*
X134477251Y-109186027D01*
X134477243Y-109186025D01*
X134293620Y-109149500D01*
X134293616Y-109149500D01*
X134106384Y-109149500D01*
X134106379Y-109149500D01*
X133922756Y-109186025D01*
X133922748Y-109186027D01*
X133749771Y-109257676D01*
X133749762Y-109257681D01*
X133594092Y-109361697D01*
X133594088Y-109361700D01*
X133542610Y-109413180D01*
X133481287Y-109446666D01*
X133454928Y-109449500D01*
X133335929Y-109449500D01*
X133210261Y-109474497D01*
X133210255Y-109474499D01*
X133186605Y-109484295D01*
X133162954Y-109494092D01*
X133091881Y-109523530D01*
X133091863Y-109523540D01*
X132985336Y-109594719D01*
X132985333Y-109594721D01*
X132838661Y-109741392D01*
X132777337Y-109774876D01*
X132707646Y-109769891D01*
X132651714Y-109728022D01*
X132647546Y-109722454D01*
X132647544Y-109722453D01*
X132647544Y-109722452D01*
X132532335Y-109636206D01*
X132532328Y-109636202D01*
X132397482Y-109585908D01*
X132397483Y-109585908D01*
X132337883Y-109579501D01*
X132337881Y-109579500D01*
X132337873Y-109579500D01*
X132337864Y-109579500D01*
X130942129Y-109579500D01*
X130942123Y-109579501D01*
X130882516Y-109585908D01*
X130747671Y-109636202D01*
X130747664Y-109636206D01*
X130632455Y-109722452D01*
X130632452Y-109722455D01*
X130546206Y-109837664D01*
X130546202Y-109837671D01*
X130495908Y-109972517D01*
X130489501Y-110032116D01*
X130489500Y-110032135D01*
X130489500Y-110645192D01*
X130469815Y-110712231D01*
X130417011Y-110757986D01*
X130347853Y-110767930D01*
X130284297Y-110738905D01*
X130277819Y-110732873D01*
X128824318Y-109279372D01*
X128790833Y-109218049D01*
X128787999Y-109191691D01*
X128787999Y-108299998D01*
X128787998Y-108299981D01*
X128777499Y-108197203D01*
X128777498Y-108197200D01*
X128764401Y-108157676D01*
X128722314Y-108030666D01*
X128630212Y-107881344D01*
X128506156Y-107757288D01*
X128356834Y-107665186D01*
X128190297Y-107610001D01*
X128190295Y-107610000D01*
X128087510Y-107599500D01*
X127162498Y-107599500D01*
X127162480Y-107599501D01*
X127059703Y-107610000D01*
X127059700Y-107610001D01*
X126893168Y-107665185D01*
X126893163Y-107665187D01*
X126743842Y-107757289D01*
X126619789Y-107881342D01*
X126527687Y-108030663D01*
X126527685Y-108030668D01*
X126527615Y-108030880D01*
X126472501Y-108197203D01*
X126472501Y-108197204D01*
X126472500Y-108197204D01*
X126462000Y-108299983D01*
X125662495Y-108299983D01*
X125652005Y-108197302D01*
X125596858Y-108030880D01*
X125596856Y-108030875D01*
X125504815Y-107881654D01*
X125380845Y-107757684D01*
X125231624Y-107665643D01*
X125231619Y-107665641D01*
X125065197Y-107610494D01*
X125065190Y-107610493D01*
X124962486Y-107600000D01*
X124750000Y-107600000D01*
X124750000Y-108750000D01*
X124250000Y-108750000D01*
X124250000Y-107600000D01*
X124037529Y-107600000D01*
X124037512Y-107600001D01*
X123934802Y-107610494D01*
X123768380Y-107665641D01*
X123768375Y-107665643D01*
X123619154Y-107757684D01*
X123495184Y-107881654D01*
X123403143Y-108030875D01*
X123403141Y-108030880D01*
X123347994Y-108197302D01*
X123347993Y-108197309D01*
X123337500Y-108300013D01*
X121725220Y-108300013D01*
X121681359Y-108268147D01*
X121681350Y-108268141D01*
X121499031Y-108175244D01*
X121304417Y-108112009D01*
X121102317Y-108080000D01*
X120897683Y-108080000D01*
X120695582Y-108112009D01*
X120500968Y-108175244D01*
X120318644Y-108268143D01*
X120274077Y-108300523D01*
X120274077Y-108300524D01*
X120953554Y-108980000D01*
X120947339Y-108980000D01*
X120845606Y-109007259D01*
X120754394Y-109059920D01*
X120679920Y-109134394D01*
X120627259Y-109225606D01*
X120600000Y-109327339D01*
X120600000Y-109333553D01*
X119920524Y-108654077D01*
X119920523Y-108654077D01*
X119888143Y-108698644D01*
X119795244Y-108880968D01*
X119732009Y-109075582D01*
X119700000Y-109277682D01*
X119700000Y-109482317D01*
X119732009Y-109684417D01*
X119795244Y-109879031D01*
X119888141Y-110061350D01*
X119888147Y-110061359D01*
X119920523Y-110105921D01*
X119920524Y-110105922D01*
X120600000Y-109426446D01*
X120600000Y-109432661D01*
X120627259Y-109534394D01*
X120679920Y-109625606D01*
X120754394Y-109700080D01*
X120845606Y-109752741D01*
X120947339Y-109780000D01*
X120953553Y-109780000D01*
X120274076Y-110459474D01*
X120318652Y-110491861D01*
X120411628Y-110539234D01*
X120462425Y-110587208D01*
X120479220Y-110655029D01*
X120456683Y-110721164D01*
X120411630Y-110760203D01*
X120318388Y-110807713D01*
X120152786Y-110928028D01*
X120008028Y-111072786D01*
X119887715Y-111238386D01*
X119794781Y-111420776D01*
X119731522Y-111615465D01*
X119699500Y-111817648D01*
X119699500Y-112022351D01*
X119731522Y-112224534D01*
X119794781Y-112419223D01*
X119887715Y-112601613D01*
X120008028Y-112767213D01*
X120152786Y-112911971D01*
X120307749Y-113024556D01*
X120318390Y-113032287D01*
X120409840Y-113078883D01*
X120411080Y-113079515D01*
X120461876Y-113127490D01*
X120478671Y-113195311D01*
X120456134Y-113261446D01*
X120411080Y-113300485D01*
X120318388Y-113347714D01*
X120152786Y-113468028D01*
X120008028Y-113612786D01*
X119887715Y-113778386D01*
X119794781Y-113960776D01*
X119731522Y-114155465D01*
X119699500Y-114357648D01*
X119699500Y-114562351D01*
X119731523Y-114764535D01*
X119731523Y-114764538D01*
X119774947Y-114898182D01*
X119776942Y-114968023D01*
X119740862Y-115027856D01*
X119678161Y-115058684D01*
X119657016Y-115060500D01*
X119024500Y-115060500D01*
X118957461Y-115040815D01*
X118911706Y-114988011D01*
X118900500Y-114936500D01*
X118900499Y-114537498D01*
X118900498Y-114537480D01*
X118889999Y-114434703D01*
X118889998Y-114434700D01*
X118885293Y-114420500D01*
X118834814Y-114268166D01*
X118742712Y-114118844D01*
X118618656Y-113994788D01*
X118469334Y-113902686D01*
X118302797Y-113847501D01*
X118302795Y-113847500D01*
X118200010Y-113837000D01*
X116799998Y-113837000D01*
X116799981Y-113837001D01*
X116697203Y-113847500D01*
X116697200Y-113847501D01*
X116530668Y-113902685D01*
X116530663Y-113902687D01*
X116381342Y-113994789D01*
X116257289Y-114118842D01*
X116165187Y-114268163D01*
X116165185Y-114268168D01*
X116144475Y-114330668D01*
X116110001Y-114434703D01*
X116110001Y-114434704D01*
X116110000Y-114434704D01*
X116099500Y-114537483D01*
X116099500Y-115429191D01*
X116079815Y-115496230D01*
X116063181Y-115516872D01*
X115266873Y-116313181D01*
X115205550Y-116346666D01*
X115179192Y-116349500D01*
X114578071Y-116349500D01*
X114511032Y-116329815D01*
X114477754Y-116298386D01*
X114371966Y-116152781D01*
X114227219Y-116008034D01*
X114227213Y-116008028D01*
X114061610Y-115887712D01*
X114061608Y-115887711D01*
X113968919Y-115840483D01*
X113918123Y-115792509D01*
X113901328Y-115724688D01*
X113923866Y-115658553D01*
X113968917Y-115619516D01*
X114061610Y-115572287D01*
X114137883Y-115516872D01*
X114227213Y-115451971D01*
X114227215Y-115451968D01*
X114227219Y-115451966D01*
X114371966Y-115307219D01*
X114371968Y-115307215D01*
X114371971Y-115307213D01*
X114424732Y-115234590D01*
X114492287Y-115141610D01*
X114585220Y-114959219D01*
X114648477Y-114764534D01*
X114680500Y-114562352D01*
X114680500Y-114357648D01*
X114652345Y-114179887D01*
X114661300Y-114110594D01*
X114687137Y-114072808D01*
X115136273Y-113623672D01*
X115136276Y-113623669D01*
X115207465Y-113517127D01*
X115256501Y-113398744D01*
X115266652Y-113347713D01*
X115268911Y-113336359D01*
X115281500Y-113273071D01*
X115281500Y-112337486D01*
X116100001Y-112337486D01*
X116110494Y-112440197D01*
X116165641Y-112606619D01*
X116165643Y-112606624D01*
X116257684Y-112755845D01*
X116381654Y-112879815D01*
X116530875Y-112971856D01*
X116530880Y-112971858D01*
X116697302Y-113027005D01*
X116697309Y-113027006D01*
X116800019Y-113037499D01*
X117249999Y-113037499D01*
X117750000Y-113037499D01*
X118199972Y-113037499D01*
X118199986Y-113037498D01*
X118302697Y-113027005D01*
X118469119Y-112971858D01*
X118469124Y-112971856D01*
X118618345Y-112879815D01*
X118742315Y-112755845D01*
X118834356Y-112606624D01*
X118834358Y-112606619D01*
X118889505Y-112440197D01*
X118889506Y-112440190D01*
X118899999Y-112337486D01*
X118900000Y-112337473D01*
X118900000Y-112125000D01*
X117750000Y-112125000D01*
X117750000Y-113037499D01*
X117249999Y-113037499D01*
X117250000Y-113037498D01*
X117250000Y-112125000D01*
X116100001Y-112125000D01*
X116100001Y-112337486D01*
X115281500Y-112337486D01*
X115281500Y-111412513D01*
X116100000Y-111412513D01*
X116100000Y-111625000D01*
X117250000Y-111625000D01*
X117750000Y-111625000D01*
X118899999Y-111625000D01*
X118899999Y-111412528D01*
X118899998Y-111412513D01*
X118889505Y-111309802D01*
X118834358Y-111143380D01*
X118834356Y-111143375D01*
X118742315Y-110994154D01*
X118618345Y-110870184D01*
X118469124Y-110778143D01*
X118469119Y-110778141D01*
X118302697Y-110722994D01*
X118302690Y-110722993D01*
X118199986Y-110712500D01*
X117750000Y-110712500D01*
X117750000Y-111625000D01*
X117250000Y-111625000D01*
X117250000Y-110712500D01*
X116800028Y-110712500D01*
X116800012Y-110712501D01*
X116697302Y-110722994D01*
X116530880Y-110778141D01*
X116530875Y-110778143D01*
X116381654Y-110870184D01*
X116257684Y-110994154D01*
X116165643Y-111143375D01*
X116165641Y-111143380D01*
X116110494Y-111309802D01*
X116110493Y-111309809D01*
X116100000Y-111412513D01*
X115281500Y-111412513D01*
X115281500Y-110689808D01*
X115301185Y-110622769D01*
X115317819Y-110602127D01*
X115933127Y-109986819D01*
X115994450Y-109953334D01*
X116020808Y-109950500D01*
X116093617Y-109950500D01*
X116093618Y-109950499D01*
X116277251Y-109913973D01*
X116450231Y-109842322D01*
X116605908Y-109738302D01*
X116738302Y-109605908D01*
X116842322Y-109450231D01*
X116913973Y-109277251D01*
X116917866Y-109257681D01*
X116919668Y-109248623D01*
X116919668Y-109248621D01*
X116950499Y-109093620D01*
X116950500Y-109093617D01*
X116950500Y-108906383D01*
X116950499Y-108906379D01*
X116925357Y-108779981D01*
X116913973Y-108722749D01*
X116842322Y-108549769D01*
X116842321Y-108549768D01*
X116842318Y-108549762D01*
X116753391Y-108416674D01*
X116753390Y-108416672D01*
X116738305Y-108394096D01*
X116738299Y-108394088D01*
X116605911Y-108261700D01*
X116605907Y-108261697D01*
X116450237Y-108157681D01*
X116450228Y-108157676D01*
X116277251Y-108086027D01*
X116277243Y-108086025D01*
X116093620Y-108049500D01*
X116093616Y-108049500D01*
X115906384Y-108049500D01*
X115906379Y-108049500D01*
X115722756Y-108086025D01*
X115722748Y-108086027D01*
X115549771Y-108157676D01*
X115549762Y-108157681D01*
X115394092Y-108261697D01*
X115394088Y-108261700D01*
X115261700Y-108394088D01*
X115261697Y-108394092D01*
X115157681Y-108549762D01*
X115157676Y-108549771D01*
X115086027Y-108722748D01*
X115086025Y-108722756D01*
X115049500Y-108906379D01*
X115049500Y-108979191D01*
X115040855Y-109008631D01*
X115034332Y-109038618D01*
X115030577Y-109043633D01*
X115029815Y-109046230D01*
X115013181Y-109066872D01*
X114892180Y-109187873D01*
X114830857Y-109221358D01*
X114761165Y-109216374D01*
X114705232Y-109174502D01*
X114680815Y-109109038D01*
X114680499Y-109100192D01*
X114680499Y-108779998D01*
X114680498Y-108779981D01*
X114669999Y-108677203D01*
X114669998Y-108677200D01*
X114627769Y-108549762D01*
X114614814Y-108510666D01*
X114522712Y-108361344D01*
X114398656Y-108237288D01*
X114249334Y-108145186D01*
X114082797Y-108090001D01*
X114082795Y-108090000D01*
X113980010Y-108079500D01*
X112779998Y-108079500D01*
X112779981Y-108079501D01*
X112677203Y-108090000D01*
X112677200Y-108090001D01*
X112510668Y-108145185D01*
X112510663Y-108145187D01*
X112361342Y-108237289D01*
X112237289Y-108361342D01*
X112145187Y-108510663D01*
X112145185Y-108510668D01*
X112132228Y-108549771D01*
X112090001Y-108677203D01*
X112090001Y-108677204D01*
X112090000Y-108677204D01*
X112079500Y-108779983D01*
X112079500Y-109980001D01*
X112079501Y-109980018D01*
X112090000Y-110082796D01*
X112090001Y-110082799D01*
X112136379Y-110222756D01*
X112145186Y-110249334D01*
X112237288Y-110398656D01*
X112361344Y-110522712D01*
X112510666Y-110614814D01*
X112592570Y-110641954D01*
X112650015Y-110681727D01*
X112676838Y-110746243D01*
X112664523Y-110815018D01*
X112626451Y-110859978D01*
X112532787Y-110928028D01*
X112532782Y-110928032D01*
X112388032Y-111072782D01*
X112388028Y-111072787D01*
X112307023Y-111184282D01*
X112251693Y-111226948D01*
X112182080Y-111232927D01*
X112120285Y-111200321D01*
X112119024Y-111199078D01*
X111686818Y-110766872D01*
X111653333Y-110705549D01*
X111650499Y-110679191D01*
X111650499Y-109824998D01*
X111650498Y-109824981D01*
X111639999Y-109722203D01*
X111639998Y-109722200D01*
X111615997Y-109649771D01*
X111584814Y-109555666D01*
X111492712Y-109406344D01*
X111368656Y-109282288D01*
X111219334Y-109190186D01*
X111052797Y-109135001D01*
X111052795Y-109135000D01*
X110950010Y-109124500D01*
X110049998Y-109124500D01*
X110049980Y-109124501D01*
X109947203Y-109135000D01*
X109947200Y-109135001D01*
X109780668Y-109190185D01*
X109780663Y-109190187D01*
X109631342Y-109282289D01*
X109507289Y-109406342D01*
X109415187Y-109555663D01*
X109415186Y-109555666D01*
X109360001Y-109722203D01*
X109360001Y-109722204D01*
X109360000Y-109722204D01*
X109349500Y-109824983D01*
X108550498Y-109824983D01*
X108544033Y-109761698D01*
X108539999Y-109722203D01*
X108539998Y-109722200D01*
X108515997Y-109649771D01*
X108484814Y-109555666D01*
X108392712Y-109406344D01*
X108268656Y-109282288D01*
X108119334Y-109190186D01*
X107952797Y-109135001D01*
X107952795Y-109135000D01*
X107850010Y-109124500D01*
X106949998Y-109124500D01*
X106949980Y-109124501D01*
X106847203Y-109135000D01*
X106847200Y-109135001D01*
X106680668Y-109190185D01*
X106680663Y-109190187D01*
X106531342Y-109282289D01*
X106407289Y-109406342D01*
X106315187Y-109555663D01*
X106315185Y-109555668D01*
X106272568Y-109684278D01*
X106232795Y-109741723D01*
X106168279Y-109768546D01*
X106099503Y-109756231D01*
X106085971Y-109748376D01*
X105950237Y-109657681D01*
X105950228Y-109657676D01*
X105777251Y-109586027D01*
X105777243Y-109586025D01*
X105593620Y-109549500D01*
X105593616Y-109549500D01*
X105406384Y-109549500D01*
X105406379Y-109549500D01*
X105222756Y-109586025D01*
X105222748Y-109586027D01*
X105049771Y-109657676D01*
X105049762Y-109657681D01*
X104894092Y-109761697D01*
X104894088Y-109761700D01*
X104761700Y-109894088D01*
X104761698Y-109894091D01*
X104657681Y-110049762D01*
X104657676Y-110049771D01*
X104586027Y-110222748D01*
X104586025Y-110222756D01*
X104549500Y-110406379D01*
X101000500Y-110406379D01*
X101000500Y-105388575D01*
X104800000Y-105388575D01*
X104800000Y-105611424D01*
X104829085Y-105832354D01*
X104829088Y-105832367D01*
X104886763Y-106047618D01*
X104972045Y-106253502D01*
X104972054Y-106253520D01*
X105083464Y-106446491D01*
X105083473Y-106446504D01*
X105134040Y-106512403D01*
X105134043Y-106512403D01*
X105935387Y-105711059D01*
X105940889Y-105731591D01*
X106019881Y-105868408D01*
X106131592Y-105980119D01*
X106268409Y-106059111D01*
X106288940Y-106064612D01*
X105487595Y-106865955D01*
X105487595Y-106865956D01*
X105553507Y-106916533D01*
X105746485Y-107027949D01*
X105746497Y-107027954D01*
X105952381Y-107113236D01*
X106167632Y-107170911D01*
X106167645Y-107170914D01*
X106388575Y-107200000D01*
X106611425Y-107200000D01*
X106832354Y-107170914D01*
X106832367Y-107170911D01*
X107047618Y-107113236D01*
X107253502Y-107027954D01*
X107253514Y-107027949D01*
X107446498Y-106916530D01*
X107512403Y-106865957D01*
X107512404Y-106865956D01*
X106711059Y-106064612D01*
X106731591Y-106059111D01*
X106868408Y-105980119D01*
X106980119Y-105868408D01*
X107059111Y-105731591D01*
X107064612Y-105711059D01*
X107865956Y-106512404D01*
X107865957Y-106512403D01*
X107916530Y-106446498D01*
X108027949Y-106253514D01*
X108027954Y-106253502D01*
X108113236Y-106047618D01*
X108170911Y-105832367D01*
X108170914Y-105832354D01*
X108200000Y-105611424D01*
X108200000Y-105388575D01*
X108177125Y-105214823D01*
X108177125Y-105214822D01*
X108170914Y-105167646D01*
X108170911Y-105167632D01*
X108113236Y-104952381D01*
X108027954Y-104746497D01*
X108027949Y-104746485D01*
X107916533Y-104553507D01*
X107865956Y-104487595D01*
X107865955Y-104487595D01*
X107064612Y-105288939D01*
X107059111Y-105268409D01*
X106980119Y-105131592D01*
X106868408Y-105019881D01*
X106731591Y-104940889D01*
X106711058Y-104935387D01*
X107512403Y-104134043D01*
X107512403Y-104134040D01*
X107446504Y-104083473D01*
X107446502Y-104083471D01*
X107432570Y-104075428D01*
X107432567Y-104075425D01*
X107253520Y-103972054D01*
X107253502Y-103972045D01*
X107248452Y-103969953D01*
X128100000Y-103969953D01*
X128100000Y-104750000D01*
X129845879Y-104750000D01*
X129826901Y-104795818D01*
X129800000Y-104931056D01*
X129800000Y-105068944D01*
X129826901Y-105204182D01*
X129845879Y-105250000D01*
X128100000Y-105250000D01*
X128100000Y-106030046D01*
X128106203Y-106129967D01*
X128106204Y-106129970D01*
X128155518Y-106365156D01*
X128155521Y-106365166D01*
X128242867Y-106589013D01*
X128365880Y-106795457D01*
X128521180Y-106978817D01*
X128521182Y-106978819D01*
X128704542Y-107134119D01*
X128910986Y-107257132D01*
X129134833Y-107344478D01*
X129134843Y-107344481D01*
X129370029Y-107393795D01*
X129370032Y-107393796D01*
X129469953Y-107399999D01*
X129469973Y-107400000D01*
X130250000Y-107400000D01*
X130250000Y-105654120D01*
X130295818Y-105673099D01*
X130431056Y-105700000D01*
X130568944Y-105700000D01*
X130704182Y-105673099D01*
X130750000Y-105654120D01*
X130750000Y-107400000D01*
X131530027Y-107400000D01*
X131530046Y-107399999D01*
X131629967Y-107393796D01*
X131629970Y-107393795D01*
X131865156Y-107344481D01*
X131865166Y-107344478D01*
X132089013Y-107257132D01*
X132295457Y-107134119D01*
X132478817Y-106978819D01*
X132478819Y-106978817D01*
X132634119Y-106795457D01*
X132757132Y-106589013D01*
X132844478Y-106365166D01*
X132844481Y-106365156D01*
X132893795Y-106129970D01*
X132893796Y-106129967D01*
X132899999Y-106030046D01*
X132900000Y-106030027D01*
X132900000Y-105250000D01*
X131154121Y-105250000D01*
X131173099Y-105204182D01*
X131200000Y-105068944D01*
X131200000Y-104931056D01*
X131173099Y-104795818D01*
X131154121Y-104750000D01*
X132900000Y-104750000D01*
X132900000Y-103969972D01*
X132899999Y-103969953D01*
X133500000Y-103969953D01*
X133500000Y-104750000D01*
X135245879Y-104750000D01*
X135226901Y-104795818D01*
X135200000Y-104931056D01*
X135200000Y-105068944D01*
X135226901Y-105204182D01*
X135245879Y-105250000D01*
X133500000Y-105250000D01*
X133500000Y-106030046D01*
X133506203Y-106129967D01*
X133506204Y-106129970D01*
X133555518Y-106365156D01*
X133555521Y-106365166D01*
X133642867Y-106589013D01*
X133765880Y-106795457D01*
X133921180Y-106978817D01*
X133921182Y-106978819D01*
X134104542Y-107134119D01*
X134310986Y-107257132D01*
X134534833Y-107344478D01*
X134534843Y-107344481D01*
X134770029Y-107393795D01*
X134770032Y-107393796D01*
X134869953Y-107399999D01*
X134869973Y-107400000D01*
X135650000Y-107400000D01*
X135650000Y-105654120D01*
X135695818Y-105673099D01*
X135831056Y-105700000D01*
X135968944Y-105700000D01*
X136104182Y-105673099D01*
X136150000Y-105654120D01*
X136150000Y-107400000D01*
X136930027Y-107400000D01*
X136930046Y-107399999D01*
X137029967Y-107393796D01*
X137029970Y-107393795D01*
X137265156Y-107344481D01*
X137265166Y-107344478D01*
X137489013Y-107257132D01*
X137695457Y-107134119D01*
X137878817Y-106978819D01*
X137878819Y-106978817D01*
X138034119Y-106795457D01*
X138157132Y-106589013D01*
X138244478Y-106365166D01*
X138244481Y-106365156D01*
X138293795Y-106129970D01*
X138293796Y-106129967D01*
X138299999Y-106030046D01*
X138300000Y-106030027D01*
X138300000Y-105250000D01*
X136554121Y-105250000D01*
X136573099Y-105204182D01*
X136600000Y-105068944D01*
X136600000Y-104931056D01*
X136573099Y-104795818D01*
X136554121Y-104750000D01*
X138300000Y-104750000D01*
X138300000Y-103969972D01*
X138299999Y-103969953D01*
X138293796Y-103870032D01*
X138293795Y-103870029D01*
X138244481Y-103634843D01*
X138244478Y-103634833D01*
X138157132Y-103410986D01*
X138034119Y-103204542D01*
X137878819Y-103021182D01*
X137878817Y-103021180D01*
X137695457Y-102865880D01*
X137489013Y-102742867D01*
X137265166Y-102655521D01*
X137265156Y-102655518D01*
X137029970Y-102606204D01*
X137029967Y-102606203D01*
X136930046Y-102600000D01*
X136150000Y-102600000D01*
X136150000Y-104345879D01*
X136104182Y-104326901D01*
X135968944Y-104300000D01*
X135831056Y-104300000D01*
X135695818Y-104326901D01*
X135650000Y-104345879D01*
X135650000Y-102600000D01*
X134869953Y-102600000D01*
X134770032Y-102606203D01*
X134770029Y-102606204D01*
X134534843Y-102655518D01*
X134534833Y-102655521D01*
X134310986Y-102742867D01*
X134104542Y-102865880D01*
X133921182Y-103021180D01*
X133921180Y-103021182D01*
X133765880Y-103204542D01*
X133642867Y-103410986D01*
X133555521Y-103634833D01*
X133555518Y-103634843D01*
X133506204Y-103870029D01*
X133506203Y-103870032D01*
X133500000Y-103969953D01*
X132899999Y-103969953D01*
X132893796Y-103870032D01*
X132893795Y-103870029D01*
X132844481Y-103634843D01*
X132844478Y-103634833D01*
X132757132Y-103410986D01*
X132634119Y-103204542D01*
X132478819Y-103021182D01*
X132478817Y-103021180D01*
X132295457Y-102865880D01*
X132089013Y-102742867D01*
X131865166Y-102655521D01*
X131865156Y-102655518D01*
X131629970Y-102606204D01*
X131629967Y-102606203D01*
X131530046Y-102600000D01*
X130750000Y-102600000D01*
X130750000Y-104345879D01*
X130704182Y-104326901D01*
X130568944Y-104300000D01*
X130431056Y-104300000D01*
X130295818Y-104326901D01*
X130250000Y-104345879D01*
X130250000Y-102600000D01*
X129469953Y-102600000D01*
X129370032Y-102606203D01*
X129370029Y-102606204D01*
X129134843Y-102655518D01*
X129134833Y-102655521D01*
X128910986Y-102742867D01*
X128704542Y-102865880D01*
X128521182Y-103021180D01*
X128521180Y-103021182D01*
X128365880Y-103204542D01*
X128242867Y-103410986D01*
X128155521Y-103634833D01*
X128155518Y-103634843D01*
X128106204Y-103870029D01*
X128106203Y-103870032D01*
X128100000Y-103969953D01*
X107248452Y-103969953D01*
X107047618Y-103886763D01*
X106832367Y-103829088D01*
X106832354Y-103829085D01*
X106611425Y-103800000D01*
X106388575Y-103800000D01*
X106167645Y-103829085D01*
X106167632Y-103829088D01*
X105952381Y-103886763D01*
X105746497Y-103972045D01*
X105746479Y-103972054D01*
X105553511Y-104083462D01*
X105487595Y-104134042D01*
X106288941Y-104935387D01*
X106268409Y-104940889D01*
X106131592Y-105019881D01*
X106019881Y-105131592D01*
X105940889Y-105268409D01*
X105935387Y-105288940D01*
X105134042Y-104487595D01*
X105083462Y-104553511D01*
X104972054Y-104746479D01*
X104972045Y-104746497D01*
X104886763Y-104952381D01*
X104829088Y-105167632D01*
X104829085Y-105167645D01*
X104800000Y-105388575D01*
X101000500Y-105388575D01*
X101000500Y-105002871D01*
X101000632Y-104997144D01*
X101017296Y-104636687D01*
X101018353Y-104625292D01*
X101067809Y-104270757D01*
X101069912Y-104259510D01*
X101151869Y-103911049D01*
X101154992Y-103900070D01*
X101268763Y-103560623D01*
X101272886Y-103549984D01*
X101417482Y-103222503D01*
X101422574Y-103212277D01*
X101596768Y-102899541D01*
X101602794Y-102889809D01*
X101619186Y-102865880D01*
X101805103Y-102594472D01*
X101811985Y-102585360D01*
X102040682Y-102309951D01*
X102048376Y-102301511D01*
X102301511Y-102048376D01*
X102309951Y-102040682D01*
X102585360Y-101811985D01*
X102594472Y-101805103D01*
X102889814Y-101602790D01*
X102899541Y-101596768D01*
X103212277Y-101422574D01*
X103222503Y-101417482D01*
X103549984Y-101272886D01*
X103560623Y-101268763D01*
X103900070Y-101154992D01*
X103911049Y-101151869D01*
X104259520Y-101069909D01*
X104270757Y-101067809D01*
X104625301Y-101018352D01*
X104636687Y-101017296D01*
X104997145Y-101000632D01*
X105002872Y-101000500D01*
X105092710Y-101000500D01*
X134907290Y-101000500D01*
X134997128Y-101000500D01*
X135002855Y-101000632D01*
G37*
%TD.AperFunction*%
%TD*%
M02*
